<svg width="16" height="16" viewBox="0 0 16 16" fill="none" xmlns="http://www.w3.org/2000/svg">
<path d="M7.60637 0.0816406L0.606368 3.08164C0.168868 3.26914 -0.074882 3.73789 0.021993 4.20039C0.118868 4.66289 0.525118 5.00039 1.00012 5.00039V5.25039C1.00012 5.66602 1.33449 6.00039 1.75012 6.00039H14.2501C14.6657 6.00039 15.0001 5.66602 15.0001 5.25039V5.00039C15.4751 5.00039 15.8845 4.66602 15.9782 4.20039C16.072 3.73477 15.8282 3.26602 15.3939 3.08164L8.39387 0.0816406C8.14387 -0.0246094 7.85637 -0.0246094 7.60637 0.0816406ZM4.00012 7.00039H2.00012V13.1348C1.98137 13.1441 1.96262 13.1566 1.94387 13.1691L0.443868 14.1691C0.078243 14.4129 -0.087382 14.8691 0.040743 15.291C0.168868 15.7129 0.559493 16.0004 1.00012 16.0004H15.0001C15.4407 16.0004 15.8282 15.7129 15.9564 15.291C16.0845 14.8691 15.922 14.4129 15.5532 14.1691L14.0532 13.1691C14.0345 13.1566 14.0157 13.1473 13.997 13.1348V7.00039H12.0001V13.0004H10.7501V7.00039H8.75012V13.0004H7.25012V7.00039H5.25012V13.0004H4.00012V7.00039ZM8.00012 2.00039C8.26534 2.00039 8.51969 2.10575 8.70722 2.29328C8.89476 2.48082 9.00012 2.73517 9.00012 3.00039C9.00012 3.26561 8.89476 3.51996 8.70722 3.7075C8.51969 3.89503 8.26534 4.00039 8.00012 4.00039C7.7349 4.00039 7.48055 3.89503 7.29301 3.7075C7.10547 3.51996 7.00012 3.26561 7.00012 3.00039C7.00012 2.73517 7.10547 2.48082 7.29301 2.29328C7.48055 2.10575 7.7349 2.00039 8.00012 2.00039Z" fill="#9752F2"/>
</svg>
