<svg width="49" height="48" viewBox="0 0 49 48" fill="none" xmlns="http://www.w3.org/2000/svg">
<path d="M24.5 0C37.7548 0 48.5 10.7452 48.5 24C48.5 37.2548 37.7548 48 24.5 48C11.2452 48 0.5 37.2548 0.5 24C0.5 10.7452 11.2452 0 24.5 0Z" fill="#BBF7D0"/>
<path d="M24.5 0C37.7548 0 48.5 10.7452 48.5 24C48.5 37.2548 37.7548 48 24.5 48C11.2452 48 0.5 37.2548 0.5 24C0.5 10.7452 11.2452 0 24.5 0Z" stroke="#E5E7EB"/>
<g clip-path="url(#clip0_909_272)">
<path d="M17.5 16.5008V21.1727C17.5 21.7039 17.7094 22.2133 18.0844 22.5883L23.5844 28.0883C24.3656 28.8695 25.6313 28.8695 26.4125 28.0883L30.5844 23.9164C31.3656 23.1352 31.3656 21.8695 30.5844 21.0883L25.0844 15.5883C24.7094 15.2133 24.2 15.0039 23.6687 15.0039H19C18.1719 15.0008 17.5 15.6727 17.5 16.5008ZM21 17.5008C21.2652 17.5008 21.5196 17.6061 21.7071 17.7937C21.8946 17.9812 22 18.2356 22 18.5008C22 18.766 21.8946 19.0204 21.7071 19.2079C21.5196 19.3954 21.2652 19.5008 21 19.5008C20.7348 19.5008 20.4804 19.3954 20.2929 19.2079C20.1054 19.0204 20 18.766 20 18.5008C20 18.2356 20.1054 17.9812 20.2929 17.7937C20.4804 17.6061 20.7348 17.5008 21 17.5008Z" fill="#16A34A"/>
</g>
<defs>
<clipPath id="clip0_909_272">
<rect width="14" height="16" fill="white" transform="translate(17.5 14)"/>
</clipPath>
</defs>
</svg>
