<svg width="90" height="90" viewBox="0 0 90 90" fill="none" xmlns="http://www.w3.org/2000/svg">
<g clip-path="url(#clip0_389_1405)">
<path d="M45 0C20.1855 0 0 20.1855 0 45C0 69.8145 20.1855 90 45 90C69.8145 90 90 69.811 90 45C90 20.189 69.8145 0 45 0ZM45 83.0287C24.0337 83.0287 6.97131 65.9698 6.97131 45C6.97131 24.0302 24.0337 6.97131 45 6.97131C65.9698 6.97131 83.0287 24.0302 83.0287 45C83.0287 65.9698 65.9663 83.0287 45 83.0287Z" fill="#9752F2"/>
<path d="M65.6457 29.349C64.227 28.0593 62.0206 28.1604 60.724 29.586L39.4613 52.9993L29.189 42.5563C27.833 41.183 25.6301 41.162 24.2603 42.5145C22.8869 43.8634 22.866 46.0699 24.2184 47.4432L37.077 60.5145C37.7359 61.1837 38.6281 61.5567 39.5622 61.5567C39.5831 61.5567 39.6076 61.5567 39.6285 61.5602C40.5905 61.5393 41.4969 61.128 42.1416 60.4169L65.8825 34.2744C67.1759 32.8451 67.0713 30.6422 65.6457 29.349Z" fill="#9752F2"/>
</g>
<defs>
<clipPath id="clip0_389_1405">
<rect width="90" height="90" fill="white"/>
</clipPath>
</defs>
</svg>
