<svg width="48" height="48" viewBox="0 0 48 48" fill="none" xmlns="http://www.w3.org/2000/svg">
<path d="M24 0C37.2548 0 48 10.7452 48 24C48 37.2548 37.2548 48 24 48C10.7452 48 0 37.2548 0 24C0 10.7452 10.7452 0 24 0Z" fill="#F3E8FF"/>
<path d="M24 0C37.2548 0 48 10.7452 48 24C48 37.2548 37.2548 48 24 48C10.7452 48 0 37.2548 0 24C0 10.7452 10.7452 0 24 0Z" stroke="#E5E7EB"/>
<path d="M32 36H16V12H32V36Z" stroke="#E5E7EB"/>
<path d="M32 30H16V14H32V30Z" stroke="#E5E7EB"/>
<path d="M21.5 15.75V17H26.5V15.75C26.5 15.6125 26.3875 15.5 26.25 15.5H21.75C21.6125 15.5 21.5 15.6125 21.5 15.75ZM20 17V15.75C20 14.7844 20.7844 14 21.75 14H26.25C27.2156 14 28 14.7844 28 15.75V17V18V29H20V18V17ZM18 17H19V29H18C16.8969 29 16 28.1031 16 27V19C16 17.8969 16.8969 17 18 17ZM30 29H29V17H30C31.1031 17 32 17.8969 32 19V27C32 28.1031 31.1031 29 30 29Z" fill="#5F259F"/>
</svg>
