<svg width="41" height="40" viewBox="0 0 41 40" fill="none" xmlns="http://www.w3.org/2000/svg">
<path d="M0.375 12C0.375 5.37258 5.74758 0 12.375 0H28.375C35.0024 0 40.375 5.37258 40.375 12V28C40.375 34.6274 35.0024 40 28.375 40H12.375C5.74758 40 0.375 34.6274 0.375 28V12Z" fill="#F3F4F6"/>
<g clip-path="url(#clip0_488_227)">
<path d="M21.3752 12C21.6404 12 21.8947 12.1054 22.0823 12.2929C22.2698 12.4804 22.3752 12.7348 22.3752 13C22.3752 13.2652 22.2698 13.5196 22.0823 13.7071C21.8947 13.8946 21.6404 14 21.3752 14C21.1099 14 20.8556 13.8946 20.6681 13.7071C20.4805 13.5196 20.3752 13.2652 20.3752 13C20.3752 12.7348 20.4805 12.4804 20.6681 12.2929C20.8556 12.1054 21.1099 12 21.3752 12ZM17.3752 13.75C17.3752 13.4848 17.4805 13.2304 17.6681 13.0429C17.8556 12.8554 18.1099 12.75 18.3752 12.75C18.6404 12.75 18.8947 12.8554 19.0823 13.0429C19.2698 13.2304 19.3752 13.4848 19.3752 13.75C19.3752 14.0152 19.2698 14.2696 19.0823 14.4571C18.8947 14.6446 18.6404 14.75 18.3752 14.75C18.1099 14.75 17.8556 14.6446 17.6681 14.4571C17.4805 14.2696 17.3752 14.0152 17.3752 13.75ZM13.3752 21C13.3752 19.8969 14.272 19 15.3752 19H19.6252V16.9219L13.2783 18.2344C12.872 18.3187 12.4752 18.0562 12.3908 17.6531C12.3064 17.25 12.5689 16.85 12.972 16.7656L20.222 15.2656L27.472 13.7656C27.8783 13.6812 28.2752 13.9437 28.3595 14.3469C28.4439 14.75 28.1814 15.15 27.7783 15.2344L21.1252 16.6094V19H25.3752C26.4783 19 27.3752 19.8969 27.3752 21V26C27.3752 27.1031 26.4783 28 25.3752 28H15.3752C14.272 28 13.3752 27.1031 13.3752 26V21ZM15.3752 21C15.1002 21 14.8752 21.225 14.8752 21.5V23.5C14.8752 23.775 15.1002 24 15.3752 24H17.3752C17.6502 24 17.8752 23.775 17.8752 23.5V21.5C17.8752 21.225 17.6502 21 17.3752 21H15.3752ZM18.8752 21.5V23.5C18.8752 23.775 19.1002 24 19.3752 24H21.3752C21.6502 24 21.8752 23.775 21.8752 23.5V21.5C21.8752 21.225 21.6502 21 21.3752 21H19.3752C19.1002 21 18.8752 21.225 18.8752 21.5ZM23.3752 21C23.1002 21 22.8752 21.225 22.8752 21.5V23.5C22.8752 23.775 23.1002 24 23.3752 24H25.3752C25.6502 24 25.8752 23.775 25.8752 23.5V21.5C25.8752 21.225 25.6502 21 25.3752 21H23.3752Z" fill="#4B5563"/>
</g>
<defs>
<clipPath id="clip0_488_227">
<rect width="16" height="16" fill="white" transform="translate(12.375 12)"/>
</clipPath>
</defs>
</svg>
