<svg width="49" height="48" viewBox="0 0 49 48" fill="none" xmlns="http://www.w3.org/2000/svg">
<path d="M12.5 1H36.5C42.5751 1 47.5 5.92487 47.5 12V36C47.5 42.0751 42.5751 47 36.5 47H12.5C6.42487 47 1.5 42.0751 1.5 36V12C1.5 5.92487 6.42487 1 12.5 1Z" fill="#DCFCE7"/>
<path d="M12.5 1H36.5C42.5751 1 47.5 5.92487 47.5 12V36C47.5 42.0751 42.5751 47 36.5 47H12.5C6.42487 47 1.5 42.0751 1.5 36V12C1.5 5.92487 6.42487 1 12.5 1Z" stroke="#4ADE80" stroke-width="2"/>
<g clip-path="url(#clip0_488_167)">
<path d="M16.25 15.375C15.009 15.375 14 16.384 14 17.625V18.75H34.25V17.625C34.25 16.384 33.241 15.375 32 15.375H16.25ZM34.25 22.125H14V28.875C14 30.116 15.009 31.125 16.25 31.125H32C33.241 31.125 34.25 30.116 34.25 28.875V22.125ZM17.9375 26.625H20.1875C20.4969 26.625 20.75 26.8781 20.75 27.1875C20.75 27.4969 20.4969 27.75 20.1875 27.75H17.9375C17.6281 27.75 17.375 27.4969 17.375 27.1875C17.375 26.8781 17.6281 26.625 17.9375 26.625ZM21.875 27.1875C21.875 26.8781 22.1281 26.625 22.4375 26.625H26.9375C27.2469 26.625 27.5 26.8781 27.5 27.1875C27.5 27.4969 27.2469 27.75 26.9375 27.75H22.4375C22.1281 27.75 21.875 27.4969 21.875 27.1875Z" fill="#16A34A"/>
</g>
<defs>
<clipPath id="clip0_488_167">
<rect width="20.25" height="18" fill="white" transform="translate(14 14.25)"/>
</clipPath>
</defs>
</svg>
