<svg width="41" height="40" viewBox="0 0 41 40" fill="none" xmlns="http://www.w3.org/2000/svg">
<path d="M0.375 12C0.375 5.37258 5.74758 0 12.375 0H28.375C35.0024 0 40.375 5.37258 40.375 12V28C40.375 34.6274 35.0024 40 28.375 40H12.375C5.74758 40 0.375 34.6274 0.375 28V12Z" fill="#FEF3C7"/>
<g clip-path="url(#clip0_488_387)">
<path d="M14.875 12C15.538 12 16.1739 12.2634 16.6428 12.7322C17.1116 13.2011 17.375 13.837 17.375 14.5C17.375 15.163 17.1116 15.7989 16.6428 16.2678C16.1739 16.7366 15.538 17 14.875 17C14.212 17 13.5761 16.7366 13.1072 16.2678C12.6384 15.7989 12.375 15.163 12.375 14.5C12.375 13.837 12.6384 13.2011 13.1072 12.7322C13.5761 12.2634 14.212 12 14.875 12ZM26.375 12C27.038 12 27.6739 12.2634 28.1428 12.7322C28.6116 13.2011 28.875 13.837 28.875 14.5C28.875 15.163 28.6116 15.7989 28.1428 16.2678C27.6739 16.7366 27.038 17 26.375 17C25.712 17 25.0761 16.7366 24.6072 16.2678C24.1384 15.7989 23.875 15.163 23.875 14.5C23.875 13.837 24.1384 13.2011 24.6072 12.7322C25.0761 12.2634 25.712 12 26.375 12ZM10.375 21.3344C10.375 19.4938 11.8687 18 13.7094 18H15.0437C15.5406 18 16.0125 18.1094 16.4375 18.3031C16.3969 18.5281 16.3781 18.7625 16.3781 19C16.3781 20.1938 16.9031 21.2656 17.7312 22C17.725 22 17.7188 22 17.7094 22H11.0406C10.675 22 10.375 21.7 10.375 21.3344ZM23.0406 22C23.0344 22 23.0281 22 23.0188 22C23.85 21.2656 24.3719 20.1938 24.3719 19C24.3719 18.7625 24.35 18.5312 24.3125 18.3031C24.7375 18.1062 25.2094 18 25.7063 18H27.0406C28.8813 18 30.375 19.4938 30.375 21.3344C30.375 21.7031 30.075 22 29.7094 22H23.0406ZM17.375 19C17.375 18.2044 17.6911 17.4413 18.2537 16.8787C18.8163 16.3161 19.5794 16 20.375 16C21.1706 16 21.9337 16.3161 22.4963 16.8787C23.0589 17.4413 23.375 18.2044 23.375 19C23.375 19.7956 23.0589 20.5587 22.4963 21.1213C21.9337 21.6839 21.1706 22 20.375 22C19.5794 22 18.8163 21.6839 18.2537 21.1213C17.6911 20.5587 17.375 19.7956 17.375 19ZM14.375 27.1656C14.375 24.8656 16.2406 23 18.5406 23H22.2094C24.5094 23 26.375 24.8656 26.375 27.1656C26.375 27.625 26.0031 28 25.5406 28H15.2094C14.75 28 14.375 27.6281 14.375 27.1656Z" fill="#D97706"/>
</g>
<defs>
<clipPath id="clip0_488_387">
<rect width="20" height="16" fill="white" transform="translate(10.375 12)"/>
</clipPath>
</defs>
</svg>
