<svg width="19" height="14" viewBox="0 0 19 14" fill="none" xmlns="http://www.w3.org/2000/svg">
<path d="M2.4375 0C1.33438 0 0.4375 0.896875 0.4375 2V3H18.4375V2C18.4375 0.896875 17.5406 0 16.4375 0H2.4375ZM18.4375 6H0.4375V12C0.4375 13.1031 1.33438 14 2.4375 14H16.4375C17.5406 14 18.4375 13.1031 18.4375 12V6ZM3.9375 10H5.9375C6.2125 10 6.4375 10.225 6.4375 10.5C6.4375 10.775 6.2125 11 5.9375 11H3.9375C3.6625 11 3.4375 10.775 3.4375 10.5C3.4375 10.225 3.6625 10 3.9375 10ZM7.4375 10.5C7.4375 10.225 7.6625 10 7.9375 10H11.9375C12.2125 10 12.4375 10.225 12.4375 10.5C12.4375 10.775 12.2125 11 11.9375 11H7.9375C7.6625 11 7.4375 10.775 7.4375 10.5Z" fill="#DB2777"/>
</svg>
