<svg width="40" height="40" viewBox="0 0 40 40" fill="none" xmlns="http://www.w3.org/2000/svg">
<path d="M32 0C36.4183 0 40 3.58172 40 8V32C40 36.4183 36.4183 40 32 40H8C3.58172 40 0 36.4183 0 32V8C0 3.58172 3.58172 0 8 0H32Z" fill="#D1D5DB"/>
<path d="M32 0C36.4183 0 40 3.58172 40 8V32C40 36.4183 36.4183 40 32 40H8C3.58172 40 0 36.4183 0 32V8C0 3.58172 3.58172 0 8 0H32Z" stroke="#E5E7EB"/>
<path d="M28 32H12V8H28V32Z" stroke="#E5E7EB"/>
<g clip-path="url(#clip0_221_142)">
<path d="M19.6062 12.0816L12.6062 15.0816C12.1687 15.2691 11.925 15.7379 12.0219 16.2004C12.1187 16.6629 12.525 17.0004 13 17.0004V17.2504C13 17.666 13.3344 18.0004 13.75 18.0004H26.25C26.6656 18.0004 27 17.666 27 17.2504V17.0004C27.475 17.0004 27.8844 16.666 27.9781 16.2004C28.0719 15.7348 27.8281 15.266 27.3937 15.0816L20.3937 12.0816C20.1437 11.9754 19.8562 11.9754 19.6062 12.0816ZM16 19.0004H14V25.1348C13.9812 25.1441 13.9625 25.1566 13.9437 25.1691L12.4437 26.1691C12.0781 26.4129 11.9125 26.8691 12.0406 27.291C12.1687 27.7129 12.5594 28.0004 13 28.0004H27C27.4406 28.0004 27.8281 27.7129 27.9562 27.291C28.0844 26.8691 27.9219 26.4129 27.5531 26.1691L26.0531 25.1691C26.0344 25.1566 26.0156 25.1473 25.9969 25.1348V19.0004H24V25.0004H22.75V19.0004H20.75V25.0004H19.25V19.0004H17.25V25.0004H16V19.0004ZM20 14.0004C20.2652 14.0004 20.5196 14.1057 20.7071 14.2933C20.8946 14.4808 21 14.7352 21 15.0004C21 15.2656 20.8946 15.52 20.7071 15.7075C20.5196 15.895 20.2652 16.0004 20 16.0004C19.7348 16.0004 19.4804 15.895 19.2929 15.7075C19.1054 15.52 19 15.2656 19 15.0004C19 14.7352 19.1054 14.4808 19.2929 14.2933C19.4804 14.1057 19.7348 14.0004 20 14.0004Z" fill="#4B5563"/>
</g>
<defs>
<clipPath id="clip0_221_142">
<path d="M12 12H28V28H12V12Z" fill="white"/>
</clipPath>
</defs>
</svg>
