<svg width="41" height="40" viewBox="0 0 41 40" fill="none" xmlns="http://www.w3.org/2000/svg">
<path d="M0.625 12C0.625 5.37258 5.99758 0 12.625 0H28.625C35.2524 0 40.625 5.37258 40.625 12V28C40.625 34.6274 35.2524 40 28.625 40H12.625C5.99758 40 0.625 34.6274 0.625 28V12Z" fill="#DCFCE7"/>
<g clip-path="url(#clip0_488_408)">
<path d="M14.1125 21.3867L19.7594 26.6586C19.9938 26.8773 20.3031 26.9992 20.625 26.9992C20.9469 26.9992 21.2563 26.8773 21.4906 26.6586L27.1375 21.3867C28.0875 20.5023 28.625 19.2617 28.625 17.9648V17.7836C28.625 15.5992 27.0469 13.7367 24.8938 13.3773C23.4688 13.1398 22.0188 13.6054 21 14.6242L20.625 14.9992L20.25 14.6242C19.2312 13.6054 17.7812 13.1398 16.3563 13.3773C14.2031 13.7367 12.625 15.5992 12.625 17.7836V17.9648C12.625 19.2617 13.1625 20.5023 14.1125 21.3867Z" fill="#16A34A"/>
</g>
<defs>
<clipPath id="clip0_488_408">
<rect width="16" height="16" fill="white" transform="translate(12.625 12)"/>
</clipPath>
</defs>
</svg>
