<svg width="15" height="15" viewBox="0 0 15 15" fill="none" xmlns="http://www.w3.org/2000/svg">
<g clip-path="url(#clip0_407_143)">
<path d="M8.09375 1.625C8.09375 1.14102 7.70273 0.75 7.21875 0.75C6.73477 0.75 6.34375 1.14102 6.34375 1.625V8.26133L4.33672 6.2543C3.99492 5.9125 3.43984 5.9125 3.09805 6.2543C2.75625 6.59609 2.75625 7.15117 3.09805 7.49297L6.59805 10.993C6.93984 11.3348 7.49492 11.3348 7.83672 10.993L11.3367 7.49297C11.6785 7.15117 11.6785 6.59609 11.3367 6.2543C10.9949 5.9125 10.4398 5.9125 10.098 6.2543L8.09375 8.26133V1.625ZM1.96875 10.375C1.00352 10.375 0.21875 11.1598 0.21875 12.125V13C0.21875 13.9652 1.00352 14.75 1.96875 14.75H12.4688C13.434 14.75 14.2188 13.9652 14.2188 13V12.125C14.2188 11.1598 13.434 10.375 12.4688 10.375H9.69336L8.45469 11.6137C7.77109 12.2973 6.66367 12.2973 5.98008 11.6137L4.74414 10.375H1.96875ZM12.0312 11.9062C12.2053 11.9062 12.3722 11.9754 12.4953 12.0985C12.6184 12.2215 12.6875 12.3885 12.6875 12.5625C12.6875 12.7365 12.6184 12.9035 12.4953 13.0265C12.3722 13.1496 12.2053 13.2188 12.0312 13.2188C11.8572 13.2188 11.6903 13.1496 11.5672 13.0265C11.4441 12.9035 11.375 12.7365 11.375 12.5625C11.375 12.3885 11.4441 12.2215 11.5672 12.0985C11.6903 11.9754 11.8572 11.9062 12.0312 11.9062Z" fill="#9752F2"/>
</g>
<defs>
<clipPath id="clip0_407_143">
<path d="M0.21875 0.75H14.2188V14.75H0.21875V0.75Z" fill="white"/>
</clipPath>
</defs>
</svg>
