<svg width="49" height="48" viewBox="0 0 49 48" fill="none" xmlns="http://www.w3.org/2000/svg">
<path d="M0.5 12C0.5 5.37258 5.87258 0 12.5 0H36.5C43.1274 0 48.5 5.37258 48.5 12V36C48.5 42.6274 43.1274 48 36.5 48H12.5C5.87258 48 0.5 42.6274 0.5 36V12Z" fill="#FEE2E2"/>
<g clip-path="url(#clip0_488_195)">
<path d="M15.5 16.5V26.625H33.5V16.5H15.5ZM13.25 16.5C13.25 15.259 14.259 14.25 15.5 14.25H33.5C34.741 14.25 35.75 15.259 35.75 16.5V26.625C35.75 27.866 34.741 28.875 33.5 28.875H15.5C14.259 28.875 13.25 27.866 13.25 26.625V16.5ZM17.75 30H31.25C31.8723 30 32.375 30.5027 32.375 31.125C32.375 31.7473 31.8723 32.25 31.25 32.25H17.75C17.1277 32.25 16.625 31.7473 16.625 31.125C16.625 30.5027 17.1277 30 17.75 30Z" fill="#DC2626"/>
</g>
<defs>
<clipPath id="clip0_488_195">
<rect width="22.5" height="18" fill="white" transform="translate(13.25 14.25)"/>
</clipPath>
</defs>
</svg>
