<svg width="41" height="40" viewBox="0 0 41 40" fill="none" xmlns="http://www.w3.org/2000/svg">
<path d="M0.875 12C0.875 5.37258 6.24758 0 12.875 0H28.875C35.5024 0 40.875 5.37258 40.875 12V28C40.875 34.6274 35.5024 40 28.875 40H12.875C6.24758 40 0.875 34.6274 0.875 28V12Z" fill="#DBEAFE"/>
<g clip-path="url(#clip0_488_401)">
<path d="M20.875 13C20.6219 13 20.3719 13.0437 20.1344 13.1281L11.3687 16.2937C11.0719 16.4031 10.875 16.6844 10.875 17C10.875 17.3156 11.0719 17.5969 11.3687 17.7063L13.1781 18.3594C12.6656 19.1656 12.375 20.1187 12.375 21.1219V22C12.375 22.8875 12.0375 23.8031 11.6781 24.525C11.475 24.9312 11.2437 25.3313 10.975 25.7C10.875 25.8344 10.8469 26.0094 10.9031 26.1687C10.9594 26.3281 11.0906 26.4469 11.2531 26.4875L13.2531 26.9875C13.3844 27.0219 13.525 26.9969 13.6406 26.925C13.7562 26.8531 13.8375 26.7344 13.8625 26.6C14.1312 25.2625 13.9969 24.0625 13.7969 23.2031C13.6969 22.7594 13.5625 22.3062 13.375 21.8906V21.1219C13.375 20.1781 13.6937 19.2875 14.2469 18.575C14.65 18.0906 15.1719 17.7 15.7844 17.4594L20.6906 15.5312C20.9469 15.4313 21.2375 15.5563 21.3375 15.8125C21.4375 16.0687 21.3125 16.3594 21.0562 16.4594L16.15 18.3875C15.7625 18.5406 15.4219 18.775 15.1437 19.0625L20.1312 20.8625C20.3687 20.9469 20.6187 20.9906 20.8719 20.9906C21.125 20.9906 21.375 20.9469 21.6125 20.8625L30.3812 17.7063C30.6781 17.6 30.875 17.3156 30.875 17C30.875 16.6844 30.6781 16.4031 30.3812 16.2937L21.6156 13.1281C21.3781 13.0437 21.1281 13 20.875 13ZM14.875 24.75C14.875 25.8531 17.5625 27 20.875 27C24.1875 27 26.875 25.8531 26.875 24.75L26.3969 20.2063L21.9531 21.8125C21.6062 21.9375 21.2406 22 20.875 22C20.5094 22 20.1406 21.9375 19.7969 21.8125L15.3531 20.2063L14.875 24.75Z" fill="#2563EB"/>
</g>
<defs>
<clipPath id="clip0_488_401">
<rect width="20" height="16" fill="white" transform="translate(10.875 12)"/>
</clipPath>
</defs>
</svg>
