<svg width="49" height="48" viewBox="0 0 49 48" fill="none" xmlns="http://www.w3.org/2000/svg">
<path d="M0.5 12C0.5 5.37258 5.87258 0 12.5 0H36.5C43.1274 0 48.5 5.37258 48.5 12V36C48.5 42.6274 43.1274 48 36.5 48H12.5C5.87258 48 0.5 42.6274 0.5 36V12Z" fill="#FEF9C3"/>
<g clip-path="url(#clip0_751_138)">
<path d="M28.9086 15.8183C29.116 15.3366 28.9613 14.7741 28.5359 14.4648C28.1105 14.1554 27.5305 14.1835 27.1332 14.5281L18.1332 22.4031C17.7816 22.7124 17.6551 23.2081 17.8203 23.6441C17.9855 24.08 18.4074 24.3753 18.875 24.3753H22.7949L20.0914 30.6823C19.884 31.164 20.0387 31.7265 20.4641 32.0359C20.8894 32.3452 21.4695 32.3171 21.8668 31.9726L30.8668 24.0976C31.2184 23.7882 31.3449 23.2925 31.1797 22.8566C31.0144 22.4206 30.5961 22.1288 30.125 22.1288H26.2051L28.9086 15.8183Z" fill="#CA8A04"/>
</g>
<defs>
<clipPath id="clip0_751_138">
<rect width="15.75" height="18" fill="white" transform="translate(16.625 14.25)"/>
</clipPath>
</defs>
</svg>
