<svg width="49" height="48" viewBox="0 0 49 48" fill="none" xmlns="http://www.w3.org/2000/svg">
<path d="M0.5 12C0.5 5.37258 5.87258 0 12.5 0H36.5C43.1274 0 48.5 5.37258 48.5 12V36C48.5 42.6274 43.1274 48 36.5 48H12.5C5.87258 48 0.5 42.6274 0.5 36V12Z" fill="#FFEDD5"/>
<g clip-path="url(#clip0_488_188)">
<path d="M23.375 15.375H20.7453C19.7926 15.375 18.9418 15.9762 18.6254 16.8727L14.484 28.5656C14.4137 28.7695 14.375 28.9875 14.375 29.2055C14.375 30.2637 15.2363 31.125 16.2945 31.125H23.375V28.875C23.375 28.2527 23.8777 27.75 24.5 27.75C25.1223 27.75 25.625 28.2527 25.625 28.875V31.125H32.7055C33.7672 31.125 34.625 30.2637 34.625 29.2055C34.625 28.9875 34.5863 28.7695 34.516 28.5656L30.3746 16.8727C30.0547 15.9762 29.2074 15.375 28.2547 15.375H25.625V17.625C25.625 18.2473 25.1223 18.75 24.5 18.75C23.8777 18.75 23.375 18.2473 23.375 17.625V15.375ZM25.625 22.125V24.375C25.625 24.9973 25.1223 25.5 24.5 25.5C23.8777 25.5 23.375 24.9973 23.375 24.375V22.125C23.375 21.5027 23.8777 21 24.5 21C25.1223 21 25.625 21.5027 25.625 22.125Z" fill="#EA580C"/>
</g>
<defs>
<clipPath id="clip0_488_188">
<rect width="20.25" height="18" fill="white" transform="translate(14.375 14.25)"/>
</clipPath>
</defs>
</svg>
