<svg width="49" height="48" viewBox="0 0 49 48" fill="none" xmlns="http://www.w3.org/2000/svg">
<path d="M0.5 12C0.5 5.37258 5.87258 0 12.5 0H36.5C43.1274 0 48.5 5.37258 48.5 12V36C48.5 42.6274 43.1274 48 36.5 48H12.5C5.87258 48 0.5 42.6274 0.5 36V12Z" fill="#E0E7FF"/>
<g clip-path="url(#clip0_488_202)">
<path d="M22.2254 14.4407C22.4996 14.1841 22.925 14.1876 23.1992 14.4442C24.1695 15.3548 25.0801 16.3357 25.9309 17.3974C26.3176 16.8911 26.757 16.3392 27.2316 15.8892C27.5094 15.629 27.9383 15.629 28.216 15.8927C29.4324 17.0528 30.4625 18.5857 31.1867 20.0411C31.9004 21.4755 32.375 22.9415 32.375 23.9751C32.375 28.461 28.8664 32.2509 24.5 32.2509C20.0844 32.2509 16.625 28.4575 16.625 23.9716C16.625 22.6216 17.2508 20.9728 18.2211 19.3415C19.202 17.6857 20.5871 15.9595 22.2254 14.4407ZM24.5598 28.8759C25.4492 28.8759 26.2367 28.6298 26.9785 28.1376C28.4586 27.104 28.8559 25.0368 27.9664 23.4126C27.8082 23.0962 27.4039 23.0751 27.1754 23.3423L26.2895 24.3724C26.0574 24.6396 25.6391 24.6325 25.4211 24.3548C24.841 23.6165 23.8039 22.2982 23.2133 21.5493C22.9918 21.2681 22.5699 21.2646 22.3449 21.5458C21.1566 23.04 20.559 23.9821 20.559 25.0403C20.5625 27.4485 22.3414 28.8759 24.5598 28.8759Z" fill="#4F46E5"/>
</g>
<defs>
<clipPath id="clip0_488_202">
<rect width="15.75" height="18" fill="white" transform="translate(16.625 14.25)"/>
</clipPath>
</defs>
</svg>
