<svg width="41" height="40" viewBox="0 0 41 40" fill="none" xmlns="http://www.w3.org/2000/svg">
<path d="M0.125 12C0.125 5.37258 5.49758 0 12.125 0H28.125C34.7524 0 40.125 5.37258 40.125 12V28C40.125 34.6274 34.7524 40 28.125 40H12.125C5.49758 40 0.125 34.6274 0.125 28V12Z" fill="#FEE2E2"/>
<g clip-path="url(#clip0_488_394)">
<path d="M16.125 13.5C16.125 12.6719 16.7969 12 17.625 12H22.625C23.4531 12 24.125 12.6719 24.125 13.5V28H21.625V25.5C21.625 24.6719 20.9531 24 20.125 24C19.2969 24 18.625 24.6719 18.625 25.5V28H16.125V13.5ZM11.625 15H15.125V28H11.625C10.7969 28 10.125 27.3281 10.125 26.5V22H12.625C12.9 22 13.125 21.775 13.125 21.5C13.125 21.225 12.9 21 12.625 21H10.125V19H12.625C12.9 19 13.125 18.775 13.125 18.5C13.125 18.225 12.9 18 12.625 18H10.125V16.5C10.125 15.6719 10.7969 15 11.625 15ZM28.625 15C29.4531 15 30.125 15.6719 30.125 16.5V18H27.625C27.35 18 27.125 18.225 27.125 18.5C27.125 18.775 27.35 19 27.625 19H30.125V21H27.625C27.35 21 27.125 21.225 27.125 21.5C27.125 21.775 27.35 22 27.625 22H30.125V26.5C30.125 27.3281 29.4531 28 28.625 28H25.125V15H28.625ZM19.875 14C19.6 14 19.375 14.225 19.375 14.5V15.25H18.625C18.35 15.25 18.125 15.475 18.125 15.75V16.25C18.125 16.525 18.35 16.75 18.625 16.75H19.375V17.5C19.375 17.775 19.6 18 19.875 18H20.375C20.65 18 20.875 17.775 20.875 17.5V16.75H21.625C21.9 16.75 22.125 16.525 22.125 16.25V15.75C22.125 15.475 21.9 15.25 21.625 15.25H20.875V14.5C20.875 14.225 20.65 14 20.375 14H19.875Z" fill="#DC2626"/>
</g>
<defs>
<clipPath id="clip0_488_394">
<rect width="20" height="16" fill="white" transform="translate(10.125 12)"/>
</clipPath>
</defs>
</svg>
