<svg width="48" height="48" viewBox="0 0 48 48" fill="none" xmlns="http://www.w3.org/2000/svg">
<path d="M24 0C37.2548 0 48 10.7452 48 24C48 37.2548 37.2548 48 24 48C10.7452 48 0 37.2548 0 24C0 10.7452 10.7452 0 24 0Z" fill="#FED7AA"/>
<path d="M24 0C37.2548 0 48 10.7452 48 24C48 37.2548 37.2548 48 24 48C10.7452 48 0 37.2548 0 24C0 10.7452 10.7452 0 24 0Z" stroke="#E5E7EB"/>
<path d="M15 15C15.5531 15 16 15.4469 16 16V24H23V19C23 18.4469 23.4469 18 24 18H31C32.6562 18 34 19.3438 34 21V28C34 28.5531 33.5531 29 33 29C32.4469 29 32 28.5531 32 28V27H25H24H16V28C16 28.5531 15.5531 29 15 29C14.4469 29 14 28.5531 14 28V16C14 15.4469 14.4469 15 15 15ZM19.5 18C20.163 18 20.7989 18.2634 21.2678 18.7322C21.7366 19.2011 22 19.837 22 20.5C22 21.163 21.7366 21.7989 21.2678 22.2678C20.7989 22.7366 20.163 23 19.5 23C18.837 23 18.2011 22.7366 17.7322 22.2678C17.2634 21.7989 17 21.163 17 20.5C17 19.837 17.2634 19.2011 17.7322 18.7322C18.2011 18.2634 18.837 18 19.5 18Z" fill="#EA580C"/>
</svg>
