<svg width="41" height="40" viewBox="0 0 41 40" fill="none" xmlns="http://www.w3.org/2000/svg">
<path d="M0.625 12C0.625 5.37258 5.99758 0 12.625 0H28.625C35.2524 0 40.625 5.37258 40.625 12V28C40.625 34.6274 35.2524 40 28.625 40H12.625C5.99758 40 0.625 34.6274 0.625 28V12Z" fill="#D1FAE5"/>
<g clip-path="url(#clip0_488_380)">
<path d="M16.125 12C15.2969 12 14.625 12.6719 14.625 13.5V26.5C14.625 27.3281 15.2969 28 16.125 28H19.125V25.5C19.125 24.6719 19.7969 24 20.625 24C21.4531 24 22.125 24.6719 22.125 25.5V28H25.125C25.9531 28 26.625 27.3281 26.625 26.5V13.5C26.625 12.6719 25.9531 12 25.125 12H16.125ZM16.625 19.5C16.625 19.225 16.85 19 17.125 19H18.125C18.4 19 18.625 19.225 18.625 19.5V20.5C18.625 20.775 18.4 21 18.125 21H17.125C16.85 21 16.625 20.775 16.625 20.5V19.5ZM20.125 19H21.125C21.4 19 21.625 19.225 21.625 19.5V20.5C21.625 20.775 21.4 21 21.125 21H20.125C19.85 21 19.625 20.775 19.625 20.5V19.5C19.625 19.225 19.85 19 20.125 19ZM22.625 19.5C22.625 19.225 22.85 19 23.125 19H24.125C24.4 19 24.625 19.225 24.625 19.5V20.5C24.625 20.775 24.4 21 24.125 21H23.125C22.85 21 22.625 20.775 22.625 20.5V19.5ZM17.125 15H18.125C18.4 15 18.625 15.225 18.625 15.5V16.5C18.625 16.775 18.4 17 18.125 17H17.125C16.85 17 16.625 16.775 16.625 16.5V15.5C16.625 15.225 16.85 15 17.125 15ZM19.625 15.5C19.625 15.225 19.85 15 20.125 15H21.125C21.4 15 21.625 15.225 21.625 15.5V16.5C21.625 16.775 21.4 17 21.125 17H20.125C19.85 17 19.625 16.775 19.625 16.5V15.5ZM23.125 15H24.125C24.4 15 24.625 15.225 24.625 15.5V16.5C24.625 16.775 24.4 17 24.125 17H23.125C22.85 17 22.625 16.775 22.625 16.5V15.5C22.625 15.225 22.85 15 23.125 15Z" fill="#059669"/>
</g>
<defs>
<clipPath id="clip0_488_380">
<rect width="12" height="16" fill="white" transform="translate(14.625 12)"/>
</clipPath>
</defs>
</svg>
