<svg width="21" height="28" viewBox="0 0 21 28" fill="none" xmlns="http://www.w3.org/2000/svg">
<g clip-path="url(#clip0_814_1769)">
<path d="M10.3746 4.25C10.9969 4.25 11.4996 4.75273 11.4996 5.375V5.99727C16.1332 6.47891 19.8562 9.91016 20.4258 14.3012C20.4961 14.8496 19.8176 15.159 19.4484 14.7477C18.9562 14.1992 17.9965 13.8125 17.1246 13.8125C15.7641 13.8125 14.6285 14.7793 14.3683 16.066C14.3086 16.3719 14.0625 16.625 13.7496 16.625C13.4367 16.625 13.1941 16.3719 13.1308 16.066C12.8707 14.7793 11.7351 13.8125 10.3746 13.8125C9.01405 13.8125 7.8785 14.7793 7.61835 16.066C7.55858 16.3719 7.31249 16.625 6.9996 16.625C6.68671 16.625 6.44413 16.3719 6.38085 16.066C6.12069 14.7793 4.98515 13.8125 3.6246 13.8125C2.75272 13.8125 1.79296 14.1992 1.30077 14.7512C0.931629 15.1625 0.253114 14.8496 0.323426 14.3012C0.892958 9.91016 4.616 6.47891 9.2496 5.99727V5.375C9.2496 4.75273 9.75233 4.25 10.3746 4.25ZM10.3746 14.9375C10.807 14.9375 11.2008 15.0992 11.4996 15.3664V19.3883C11.4996 20.9703 10.2164 22.25 8.63788 22.25C7.55507 22.25 6.56366 21.6383 6.0785 20.668L5.99764 20.5027C5.71991 19.9473 5.94491 19.2723 6.50038 18.9945C7.05585 18.7168 7.73085 18.9418 8.00858 19.4973L8.08944 19.6625C8.19491 19.8699 8.40585 20 8.63788 20C8.97538 20 9.2496 19.7258 9.2496 19.3883V15.3664C9.54843 15.0992 9.94218 14.9375 10.3746 14.9375Z" fill="#9752F2"/>
</g>
<defs>
<clipPath id="clip0_814_1769">
<rect width="20.25" height="18" fill="white" transform="translate(0.25 4.25)"/>
</clipPath>
</defs>
</svg>
