<svg width="41" height="40" viewBox="0 0 41 40" fill="none" xmlns="http://www.w3.org/2000/svg">
<path d="M0.375 12C0.375 5.37258 5.74758 0 12.375 0H28.375C35.0024 0 40.375 5.37258 40.375 12V28C40.375 34.6274 35.0024 40 28.375 40H12.375C5.74758 40 0.375 34.6274 0.375 28V12Z" fill="#F3E8FF"/>
<g clip-path="url(#clip0_488_326)">
<path d="M20.375 12C20.5188 12 20.6625 12.0313 20.7938 12.0906L26.6781 14.5875C27.3656 14.8781 27.8781 15.5563 27.875 16.375C27.8594 19.475 26.5844 25.1469 21.2 27.725C20.6781 27.975 20.0719 27.975 19.55 27.725C14.1656 25.1469 12.8906 19.475 12.875 16.375C12.8719 15.5563 13.3844 14.8781 14.0719 14.5875L19.9594 12.0906C20.0875 12.0313 20.2313 12 20.375 12ZM20.375 14.0875V25.9C24.6875 23.8125 25.8469 19.1906 25.875 16.4187L20.375 14.0875Z" fill="#9333EA"/>
</g>
<defs>
<clipPath id="clip0_488_326">
<rect width="16" height="16" fill="white" transform="translate(12.375 12)"/>
</clipPath>
</defs>
</svg>
