<svg width="48" height="48" viewBox="0 0 48 48" fill="none" xmlns="http://www.w3.org/2000/svg">
<path d="M24 0C37.2548 0 48 10.7452 48 24C48 37.2548 37.2548 48 24 48C10.7452 48 0 37.2548 0 24C0 10.7452 10.7452 0 24 0Z" fill="#F3E8FF"/>
<path d="M24 0C37.2548 0 48 10.7452 48 24C48 37.2548 37.2548 48 24 48C10.7452 48 0 37.2548 0 24C0 10.7452 10.7452 0 24 0Z" stroke="#E5E7EB"/>
<path d="M32 36H16V12H32V36Z" stroke="#E5E7EB"/>
<path d="M32 30H16V14H32V30Z" stroke="#E5E7EB"/>
<path d="M18 15C16.8969 15 16 15.8969 16 17V27C16 28.1031 16.8969 29 18 29H30C31.1031 29 32 28.1031 32 27V20C32 18.8969 31.1031 18 30 18H18.5C18.225 18 18 17.775 18 17.5C18 17.225 18.225 17 18.5 17H30C30.5531 17 31 16.5531 31 16C31 15.4469 30.5531 15 30 15H18ZM29 22.5C29.2652 22.5 29.5196 22.6054 29.7071 22.7929C29.8946 22.9804 30 23.2348 30 23.5C30 23.7652 29.8946 24.0196 29.7071 24.2071C29.5196 24.3946 29.2652 24.5 29 24.5C28.7348 24.5 28.4804 24.3946 28.2929 24.2071C28.1054 24.0196 28 23.7652 28 23.5C28 23.2348 28.1054 22.9804 28.2929 22.7929C28.4804 22.6054 28.7348 22.5 29 22.5Z" fill="#5F259F"/>
</svg>
