<svg width="41" height="40" viewBox="0 0 41 40" fill="none" xmlns="http://www.w3.org/2000/svg">
<path d="M0.125 12C0.125 5.37258 5.49758 0 12.125 0H28.125C34.7524 0 40.125 5.37258 40.125 12V28C40.125 34.6274 34.7524 40 28.125 40H12.125C5.49758 40 0.125 34.6274 0.125 28V12Z" fill="#FFEDD5"/>
<g clip-path="url(#clip0_488_333)">
<path d="M20.875 12.75V13.0781C21.075 13.1156 21.2688 13.1625 21.4438 13.2094C21.8438 13.3156 22.0813 13.7281 21.975 14.1281C21.8688 14.5281 21.4562 14.7656 21.0562 14.6594C20.7156 14.5687 20.3969 14.5062 20.1125 14.5031C19.8844 14.5 19.6531 14.5563 19.5063 14.6406C19.4406 14.6813 19.4094 14.7156 19.3969 14.7344C19.3875 14.75 19.375 14.7719 19.375 14.8219C19.375 14.8313 19.375 14.8375 19.375 14.8406C19.3813 14.8469 19.4031 14.8781 19.4781 14.9219C19.6594 15.0312 19.9281 15.1156 20.3344 15.2375L20.3625 15.2469C20.7094 15.35 21.1719 15.4906 21.5469 15.725C21.975 15.9937 22.3625 16.4406 22.3719 17.1281C22.3812 17.8313 22.0156 18.3438 21.5375 18.6438C21.3281 18.7719 21.1031 18.8625 20.8719 18.9187V19.25C20.8719 19.6656 20.5375 20 20.1219 20C19.7063 20 19.3719 19.6656 19.3719 19.25V18.8938C19.075 18.8219 18.8031 18.7281 18.5719 18.65C18.5062 18.6281 18.4437 18.6063 18.3844 18.5875C17.9906 18.4563 17.7781 18.0312 17.9094 17.6375C18.0406 17.2437 18.4656 17.0312 18.8594 17.1625C18.9406 17.1906 19.0156 17.2156 19.0875 17.2406C19.5125 17.3844 19.8188 17.4875 20.1469 17.5C20.3969 17.5094 20.6187 17.45 20.7469 17.3719C20.8062 17.3344 20.8344 17.3031 20.8469 17.2812C20.8594 17.2625 20.875 17.225 20.8719 17.1531V17.1469C20.8719 17.1156 20.8719 17.0813 20.7469 17.0031C20.5687 16.8906 20.3 16.8031 19.9 16.6813L19.8406 16.6625C19.5031 16.5625 19.0594 16.4281 18.7031 16.2125C18.2812 15.9594 17.875 15.525 17.8719 14.8344C17.8687 14.1187 18.275 13.6281 18.7375 13.3531C18.9375 13.2344 19.1531 13.1531 19.3687 13.0969V12.75C19.3687 12.3344 19.7031 12 20.1187 12C20.5344 12 20.8687 12.3344 20.8687 12.75H20.875ZM28.8813 22.5094C29.2906 23.0656 29.1719 23.8469 28.6156 24.2563L24.6594 27.1719C23.9281 27.7094 23.0469 28 22.1375 28H17.125H12.125C11.5719 28 11.125 27.5531 11.125 27V25C11.125 24.4469 11.5719 24 12.125 24H13.275L14.6781 22.875C15.3875 22.3062 16.2687 22 17.1781 22H19.625H20.125H22.125C22.6781 22 23.125 22.4469 23.125 23C23.125 23.5531 22.6781 24 22.125 24H20.125H19.625C19.35 24 19.125 24.225 19.125 24.5C19.125 24.775 19.35 25 19.625 25H23.3938L27.1344 22.2437C27.6906 21.8344 28.4719 21.9531 28.8813 22.5094ZM17.175 24H17.1469C17.1562 24 17.1656 24 17.175 24Z" fill="#EA580C"/>
</g>
<defs>
<clipPath id="clip0_488_333">
<rect width="18" height="16" fill="white" transform="translate(11.125 12)"/>
</clipPath>
</defs>
</svg>
