<svg width="49" height="48" viewBox="0 0 49 48" fill="none" xmlns="http://www.w3.org/2000/svg">
<path d="M24.5 0C37.7548 0 48.5 10.7452 48.5 24C48.5 37.2548 37.7548 48 24.5 48C11.2452 48 0.5 37.2548 0.5 24C0.5 10.7452 11.2452 0 24.5 0Z" fill="#BFDBFE"/>
<path d="M24.5 0C37.7548 0 48.5 10.7452 48.5 24C48.5 37.2548 37.7548 48 24.5 48C11.2452 48 0.5 37.2548 0.5 24C0.5 10.7452 11.2452 0 24.5 0Z" stroke="#E5E7EB"/>
<g clip-path="url(#clip0_909_250)">
<path d="M32.5 16.5C32.5 17.0625 32.0531 17.5812 31.3 18C30.3906 18.5031 29.0344 18.8594 27.4781 18.9656C27.3625 18.9094 27.2469 18.8562 27.125 18.8094C25.8938 18.2937 24.2562 18 22.5 18C22.2406 18 21.9875 18.0063 21.7344 18.0188L21.7 18C20.9469 17.5812 20.5 17.0625 20.5 16.5C20.5 15.1187 23.1875 14 26.5 14C29.8125 14 32.5 15.1187 32.5 16.5ZM21.5219 19.0344C21.8406 19.0125 22.1687 19 22.5 19C24.4437 19 26.1687 19.3844 27.2656 19.9812C28.0406 20.4031 28.5 20.9281 28.5 21.5C28.5 21.625 28.4781 21.7469 28.4344 21.8656C28.2906 22.2781 27.9031 22.6562 27.3406 22.975C27.3375 22.9781 27.3313 22.9781 27.3281 22.9812C27.3188 22.9875 27.3094 22.9906 27.3 22.9969C26.2063 23.6031 24.4625 23.9969 22.5 23.9969C20.6375 23.9969 18.9719 23.6437 17.8687 23.0875C17.8094 23.0594 17.7531 23.0281 17.6969 22.9969C16.9469 22.5813 16.5 22.0625 16.5 21.5C16.5 20.4125 18.1688 19.4844 20.5 19.1438C20.8281 19.0969 21.1687 19.0594 21.5219 19.0344ZM29.5 21.5C29.5 20.8156 29.1687 20.2531 28.7469 19.8313C29.6312 19.6938 30.4406 19.475 31.1281 19.1906C31.6375 18.9781 32.1125 18.7156 32.5 18.3938V19.5C32.5 20.1031 31.9844 20.6594 31.1313 21.0906C30.675 21.3219 30.1187 21.5187 29.4937 21.6687C29.4969 21.6125 29.5 21.5594 29.5 21.5031V21.5ZM28.5 24.5C28.5 25.0625 28.0531 25.5813 27.3 26C27.2438 26.0312 27.1875 26.0594 27.1281 26.0906C26.0281 26.6469 24.3625 27 22.5 27C20.5375 27 18.7938 26.6062 17.7 26C16.9469 25.5813 16.5 25.0625 16.5 24.5V23.3938C16.8906 23.7156 17.3625 23.9781 17.8719 24.1906C19.1063 24.7063 20.7438 25 22.5 25C24.2562 25 25.8938 24.7063 27.1281 24.1906C27.3719 24.0906 27.6062 23.975 27.8281 23.85C28.0188 23.7438 28.1969 23.625 28.3656 23.5C28.4125 23.4656 28.4563 23.4281 28.5 23.3938V23.5V23.6781V24.5ZM29.5 24.5V23.5V22.6906C30.0938 22.5594 30.6406 22.3938 31.1281 22.1906C31.6375 21.9781 32.1125 21.7156 32.5 21.3938V22.5C32.5 22.8281 32.3438 23.1562 32.0344 23.4656C31.525 23.975 30.6281 24.3937 29.4937 24.6656C29.4969 24.6125 29.5 24.5562 29.5 24.5ZM22.5 28C24.2562 28 25.8938 27.7063 27.1281 27.1906C27.6375 26.9781 28.1125 26.7156 28.5 26.3938V27.5C28.5 28.8813 25.8125 30 22.5 30C19.1875 30 16.5 28.8813 16.5 27.5V26.3938C16.8906 26.7156 17.3625 26.9781 17.8719 27.1906C19.1063 27.7063 20.7438 28 22.5 28Z" fill="#2563EB"/>
</g>
<defs>
<clipPath id="clip0_909_250">
<rect width="16" height="16" fill="white" transform="translate(16.5 14)"/>
</clipPath>
</defs>
</svg>
