<svg width="41" height="40" viewBox="0 0 41 40" fill="none" xmlns="http://www.w3.org/2000/svg">
<path d="M0.875 12C0.875 5.37258 6.24758 0 12.875 0H28.875C35.5024 0 40.875 5.37258 40.875 12V28C40.875 34.6274 35.5024 40 28.875 40H12.875C6.24758 40 0.875 34.6274 0.875 28V12Z" fill="#FEE2E2"/>
<g clip-path="url(#clip0_488_340)">
<path d="M16.375 12C15.5469 12 14.875 12.6719 14.875 13.5V26.5C14.875 27.3281 15.5469 28 16.375 28H19.375V25.5C19.375 24.6719 20.0469 24 20.875 24C21.7031 24 22.375 24.6719 22.375 25.5V28H25.375C26.2031 28 26.875 27.3281 26.875 26.5V13.5C26.875 12.6719 26.2031 12 25.375 12H16.375ZM16.875 19.5C16.875 19.225 17.1 19 17.375 19H18.375C18.65 19 18.875 19.225 18.875 19.5V20.5C18.875 20.775 18.65 21 18.375 21H17.375C17.1 21 16.875 20.775 16.875 20.5V19.5ZM20.375 19H21.375C21.65 19 21.875 19.225 21.875 19.5V20.5C21.875 20.775 21.65 21 21.375 21H20.375C20.1 21 19.875 20.775 19.875 20.5V19.5C19.875 19.225 20.1 19 20.375 19ZM22.875 19.5C22.875 19.225 23.1 19 23.375 19H24.375C24.65 19 24.875 19.225 24.875 19.5V20.5C24.875 20.775 24.65 21 24.375 21H23.375C23.1 21 22.875 20.775 22.875 20.5V19.5ZM17.375 15H18.375C18.65 15 18.875 15.225 18.875 15.5V16.5C18.875 16.775 18.65 17 18.375 17H17.375C17.1 17 16.875 16.775 16.875 16.5V15.5C16.875 15.225 17.1 15 17.375 15ZM19.875 15.5C19.875 15.225 20.1 15 20.375 15H21.375C21.65 15 21.875 15.225 21.875 15.5V16.5C21.875 16.775 21.65 17 21.375 17H20.375C20.1 17 19.875 16.775 19.875 16.5V15.5ZM23.375 15H24.375C24.65 15 24.875 15.225 24.875 15.5V16.5C24.875 16.775 24.65 17 24.375 17H23.375C23.1 17 22.875 16.775 22.875 16.5V15.5C22.875 15.225 23.1 15 23.375 15Z" fill="#DC2626"/>
</g>
<defs>
<clipPath id="clip0_488_340">
<rect width="12" height="16" fill="white" transform="translate(14.875 12)"/>
</clipPath>
</defs>
</svg>
