<svg width="41" height="40" viewBox="0 0 41 40" fill="none" xmlns="http://www.w3.org/2000/svg">
<path d="M0.625 12C0.625 5.37258 5.99758 0 12.625 0H28.625C35.2524 0 40.625 5.37258 40.625 12V28C40.625 34.6274 35.2524 40 28.625 40H12.625C5.99758 40 0.625 34.6274 0.625 28V12Z" fill="#DBEAFE"/>
<g clip-path="url(#clip0_488_319)">
<path d="M14.625 14C14.625 13.4469 14.1781 13 13.625 13C13.0719 13 12.625 13.4469 12.625 14V24.5C12.625 25.8813 13.7437 27 15.125 27H27.625C28.1781 27 28.625 26.5531 28.625 26C28.625 25.4469 28.1781 25 27.625 25H15.125C14.85 25 14.625 24.775 14.625 24.5V14ZM27.3313 16.7063C27.7219 16.3156 27.7219 15.6813 27.3313 15.2906C26.9406 14.9 26.3062 14.9 25.9156 15.2906L22.625 18.5844L20.8313 16.7906C20.4406 16.4 19.8063 16.4 19.4156 16.7906L15.9156 20.2906C15.525 20.6812 15.525 21.3156 15.9156 21.7063C16.3063 22.0969 16.9406 22.0969 17.3313 21.7063L20.125 18.9156L21.9187 20.7094C22.3094 21.1 22.9438 21.1 23.3344 20.7094L27.3344 16.7094L27.3313 16.7063Z" fill="#2563EB"/>
</g>
<defs>
<clipPath id="clip0_488_319">
<rect width="16" height="16" fill="white" transform="translate(12.625 12)"/>
</clipPath>
</defs>
</svg>
