<svg width="16" height="16" viewBox="0 0 16 16" fill="none" xmlns="http://www.w3.org/2000/svg">
<g clip-path="url(#clip0_921_230)">
<path d="M7.60661 0.0816406L0.606612 3.08164C0.169112 3.26914 -0.0746379 3.73789 0.0222371 4.20039C0.119112 4.66289 0.525362 5.00039 1.00036 5.00039V5.25039C1.00036 5.66602 1.33474 6.00039 1.75036 6.00039H14.2504C14.666 6.00039 15.0004 5.66602 15.0004 5.25039V5.00039C15.4754 5.00039 15.8847 4.66602 15.9785 4.20039C16.0722 3.73477 15.8285 3.26602 15.3941 3.08164L8.39411 0.0816406C8.14411 -0.0246094 7.85661 -0.0246094 7.60661 0.0816406ZM4.00036 7.00039H2.00036V13.1348C1.98161 13.1441 1.96286 13.1566 1.94411 13.1691L0.444112 14.1691C0.0784871 14.4129 -0.0871379 14.8691 0.0409871 15.291C0.169112 15.7129 0.559737 16.0004 1.00036 16.0004H15.0004C15.441 16.0004 15.8285 15.7129 15.9566 15.291C16.0847 14.8691 15.9222 14.4129 15.5535 14.1691L14.0535 13.1691C14.0347 13.1566 14.016 13.1473 13.9972 13.1348V7.00039H12.0004V13.0004H10.7504V7.00039H8.75036V13.0004H7.25036V7.00039H5.25036V13.0004H4.00036V7.00039ZM8.00036 2.00039C8.26558 2.00039 8.51993 2.10575 8.70747 2.29328C8.89501 2.48082 9.00036 2.73517 9.00036 3.00039C9.00036 3.26561 8.89501 3.51996 8.70747 3.7075C8.51993 3.89503 8.26558 4.00039 8.00036 4.00039C7.73515 4.00039 7.48079 3.89503 7.29326 3.7075C7.10572 3.51996 7.00036 3.26561 7.00036 3.00039C7.00036 2.73517 7.10572 2.48082 7.29326 2.29328C7.48079 2.10575 7.73515 2.00039 8.00036 2.00039Z" fill="#4B5563"/>
</g>
<defs>
<clipPath id="clip0_921_230">
<path d="M0 0H16V16H0V0Z" fill="white"/>
</clipPath>
</defs>
</svg>
