<svg width="41" height="40" viewBox="0 0 41 40" fill="none" xmlns="http://www.w3.org/2000/svg">
<path d="M0.875 12C0.875 5.37258 6.24758 0 12.875 0H28.875C35.5024 0 40.875 5.37258 40.875 12V28C40.875 34.6274 35.5024 40 28.875 40H12.875C6.24758 40 0.875 34.6274 0.875 28V12Z" fill="#DCFCE7"/>
<g clip-path="url(#clip0_488_241)">
<path d="M13.875 13C12.7719 13 11.875 13.8969 11.875 15V16H29.875V15C29.875 13.8969 28.9781 13 27.875 13H13.875ZM29.875 19H11.875V25C11.875 26.1031 12.7719 27 13.875 27H27.875C28.9781 27 29.875 26.1031 29.875 25V19ZM15.375 23H17.375C17.65 23 17.875 23.225 17.875 23.5C17.875 23.775 17.65 24 17.375 24H15.375C15.1 24 14.875 23.775 14.875 23.5C14.875 23.225 15.1 23 15.375 23ZM18.875 23.5C18.875 23.225 19.1 23 19.375 23H23.375C23.65 23 23.875 23.225 23.875 23.5C23.875 23.775 23.65 24 23.375 24H19.375C19.1 24 18.875 23.775 18.875 23.5Z" fill="#16A34A"/>
</g>
<defs>
<clipPath id="clip0_488_241">
<rect width="18" height="16" fill="white" transform="translate(11.875 12)"/>
</clipPath>
</defs>
</svg>
