<svg width="41" height="40" viewBox="0 0 41 40" fill="none" xmlns="http://www.w3.org/2000/svg">
<path d="M0.125 12C0.125 5.37258 5.49758 0 12.125 0H28.125C34.7524 0 40.125 5.37258 40.125 12V28C40.125 34.6274 34.7524 40 28.125 40H12.125C5.49758 40 0.125 34.6274 0.125 28V12Z" fill="#E0E7FF"/>
<g clip-path="url(#clip0_488_361)">
<path d="M19.7311 12.0816L12.7311 15.0816C12.2936 15.2691 12.0499 15.7379 12.1467 16.2004C12.2436 16.6629 12.6499 17.0004 13.1249 17.0004V17.2504C13.1249 17.666 13.4592 18.0004 13.8749 18.0004H26.3749C26.7905 18.0004 27.1249 17.666 27.1249 17.2504V17.0004C27.5999 17.0004 28.0092 16.666 28.103 16.2004C28.1967 15.7348 27.953 15.266 27.5186 15.0816L20.5186 12.0816C20.2686 11.9754 19.9811 11.9754 19.7311 12.0816ZM16.1249 19.0004H14.1249V25.1348C14.1061 25.1441 14.0874 25.1566 14.0686 25.1691L12.5686 26.1691C12.203 26.4129 12.0374 26.8691 12.1655 27.291C12.2936 27.7129 12.6842 28.0004 13.1249 28.0004H27.1249C27.5655 28.0004 27.953 27.7129 28.0811 27.291C28.2092 26.8691 28.0467 26.4129 27.678 26.1691L26.178 25.1691C26.1592 25.1566 26.1405 25.1473 26.1217 25.1348V19.0004H24.1249V25.0004H22.8749V19.0004H20.8749V25.0004H19.3749V19.0004H17.3749V25.0004H16.1249V19.0004ZM20.1249 14.0004C20.3901 14.0004 20.6444 14.1057 20.832 14.2933C21.0195 14.4808 21.1249 14.7352 21.1249 15.0004C21.1249 15.2656 21.0195 15.52 20.832 15.7075C20.6444 15.895 20.3901 16.0004 20.1249 16.0004C19.8597 16.0004 19.6053 15.895 19.4178 15.7075C19.2302 15.52 19.1249 15.2656 19.1249 15.0004C19.1249 14.7352 19.2302 14.4808 19.4178 14.2933C19.6053 14.1057 19.8597 14.0004 20.1249 14.0004Z" fill="#4F46E5"/>
</g>
<defs>
<clipPath id="clip0_488_361">
<rect width="16" height="16" fill="white" transform="translate(12.125 12)"/>
</clipPath>
</defs>
</svg>
