<svg width="41" height="40" viewBox="0 0 41 40" fill="none" xmlns="http://www.w3.org/2000/svg">
<path d="M0.375 12C0.375 5.37258 5.74758 0 12.375 0H28.375C35.0024 0 40.375 5.37258 40.375 12V28C40.375 34.6274 35.0024 40 28.375 40H12.375C5.74758 40 0.375 34.6274 0.375 28V12Z" fill="#F3E8FF"/>
<g clip-path="url(#clip0_488_415)">
<path d="M15.825 12.6852C16 13.2102 15.7156 13.7758 15.1937 13.9508L14.375 14.2227V18.0008C14.375 19.657 15.7188 21.0008 17.375 21.0008C19.0312 21.0008 20.375 19.657 20.375 18.0008V14.2227L19.5594 13.9508C19.0344 13.7758 18.7531 13.2102 18.9281 12.6852C19.1031 12.1602 19.6688 11.8789 20.1938 12.0539L21.0094 12.3258C21.825 12.5977 22.375 13.3602 22.375 14.2227V18.0008C22.375 20.4133 20.6687 22.4258 18.3969 22.8977C18.5938 24.6445 20.075 26.0008 21.875 26.0008C23.8094 26.0008 25.375 24.4352 25.375 22.5008V20.2914C24.4906 19.907 23.875 19.0258 23.875 18.0008C23.875 16.6195 24.9937 15.5008 26.375 15.5008C27.7563 15.5008 28.875 16.6195 28.875 18.0008C28.875 19.0258 28.2594 19.907 27.375 20.2914V22.5008C27.375 25.5383 24.9125 28.0008 21.875 28.0008C18.9719 28.0008 16.5969 25.7539 16.3906 22.9039C14.1 22.4445 12.375 20.4258 12.375 18.0008V14.2227C12.375 13.3633 12.925 12.5977 13.7438 12.3258L14.5594 12.0539C15.0844 11.8789 15.65 12.1633 15.825 12.6852ZM26.375 19.0008C26.6402 19.0008 26.8946 18.8954 27.0821 18.7079C27.2696 18.5204 27.375 18.266 27.375 18.0008C27.375 17.7356 27.2696 17.4812 27.0821 17.2937C26.8946 17.1061 26.6402 17.0008 26.375 17.0008C26.1098 17.0008 25.8554 17.1061 25.6679 17.2937C25.4804 17.4812 25.375 17.7356 25.375 18.0008C25.375 18.266 25.4804 18.5204 25.6679 18.7079C25.8554 18.8954 26.1098 19.0008 26.375 19.0008Z" fill="#9333EA"/>
</g>
<defs>
<clipPath id="clip0_488_415">
<rect width="18" height="16" fill="white" transform="translate(11.375 12)"/>
</clipPath>
</defs>
</svg>
