<svg width="311" height="105" viewBox="0 0 311 105" fill="none" xmlns="http://www.w3.org/2000/svg">
<path d="M303 0C307.418 0 311 3.58172 311 8V97C311 101.418 307.418 105 303 105H8C3.58172 105 0 101.418 0 97V8C0 3.58172 3.58172 0 8 0H303Z" fill="url(#paint0_linear_203_776)"/>
<path d="M303 0C307.418 0 311 3.58172 311 8V97C311 101.418 307.418 105 303 105H8C3.58172 105 0 101.418 0 97V8C0 3.58172 3.58172 0 8 0H303Z" stroke="#E5E7EB"/>
<path d="M295 89H16V16H295V89Z" stroke="#E5E7EB"/>
<path d="M231 89H16V16H231V89Z" stroke="#E5E7EB"/>
<path d="M231 36H16V16H231V36Z" stroke="#E5E7EB"/>
<path d="M78.6457 28V17.8182H82.6627C83.4317 17.8182 84.0879 17.9557 84.6315 18.2308C85.1784 18.5026 85.5943 18.8887 85.8794 19.3892C86.1677 19.8864 86.3119 20.4714 86.3119 21.1442C86.3119 21.8203 86.166 22.402 85.8744 22.8892C85.5827 23.3731 85.1601 23.7443 84.6066 24.0028C84.0564 24.2614 83.3902 24.3906 82.608 24.3906H79.9184V22.6605H82.26C82.671 22.6605 83.0124 22.6042 83.2842 22.4915C83.556 22.3788 83.7581 22.2098 83.8907 21.9844C84.0266 21.759 84.0945 21.4789 84.0945 21.1442C84.0945 20.8061 84.0266 20.5211 83.8907 20.2891C83.7581 20.0571 83.5543 19.8814 83.2792 19.7621C83.0074 19.6394 82.6644 19.5781 82.2501 19.5781H80.7984V28H78.6457ZM84.1443 23.3665L86.6748 28H84.2984L81.8225 23.3665H84.1443ZM92.6904 24.7486V20.3636H94.8083V28H92.7749V26.6129H92.6954C92.5231 27.0604 92.2364 27.42 91.8353 27.6918C91.4376 27.9635 90.952 28.0994 90.3786 28.0994C89.8682 28.0994 89.4191 27.9834 89.0313 27.7514C88.6436 27.5194 88.3403 27.1896 88.1215 26.7621C87.9061 26.3345 87.7967 25.8224 87.7934 25.2259V20.3636H89.9113V24.848C89.9146 25.2988 90.0356 25.6551 90.2742 25.9169C90.5129 26.1787 90.8327 26.3097 91.2338 26.3097C91.489 26.3097 91.7276 26.2517 91.9497 26.1357C92.1717 26.0163 92.3507 25.8407 92.4866 25.6087C92.6258 25.3767 92.6937 25.09 92.6904 24.7486ZM96.5024 28V20.3636H98.5209V21.7109H98.6104C98.7694 21.2635 99.0346 20.9105 99.4058 20.652C99.777 20.3935 100.221 20.2642 100.738 20.2642C101.262 20.2642 101.708 20.3951 102.076 20.657C102.443 20.9155 102.689 21.2668 102.811 21.7109H102.891C103.047 21.2734 103.328 20.9238 103.736 20.6619C104.147 20.3968 104.633 20.2642 105.193 20.2642C105.905 20.2642 106.484 20.4912 106.928 20.9453C107.375 21.3961 107.599 22.0357 107.599 22.8643V28H105.486V23.282C105.486 22.8577 105.373 22.5395 105.148 22.3274C104.923 22.1153 104.641 22.0092 104.303 22.0092C103.918 22.0092 103.618 22.1319 103.403 22.3771C103.188 22.6191 103.08 22.9389 103.08 23.3366V28H101.027V23.2372C101.027 22.8627 100.919 22.5644 100.703 22.3423C100.491 22.1203 100.211 22.0092 99.8632 22.0092C99.6279 22.0092 99.4157 22.0689 99.2268 22.1882C99.0412 22.3042 98.8937 22.4683 98.7844 22.6804C98.675 22.8892 98.6203 23.1345 98.6203 23.4162V28H96.5024ZM109.272 28V20.3636H111.29V21.7109H111.38C111.539 21.2635 111.804 20.9105 112.175 20.652C112.547 20.3935 112.991 20.2642 113.508 20.2642C114.031 20.2642 114.477 20.3951 114.845 20.657C115.213 20.9155 115.458 21.2668 115.581 21.7109H115.66C115.816 21.2734 116.098 20.9238 116.506 20.6619C116.917 20.3968 117.402 20.2642 117.962 20.2642C118.675 20.2642 119.253 20.4912 119.697 20.9453C120.145 21.3961 120.369 22.0357 120.369 22.8643V28H118.256V23.282C118.256 22.8577 118.143 22.5395 117.918 22.3274C117.692 22.1153 117.41 22.0092 117.072 22.0092C116.688 22.0092 116.388 22.1319 116.172 22.3771C115.957 22.6191 115.849 22.9389 115.849 23.3366V28H113.796V23.2372C113.796 22.8627 113.688 22.5644 113.473 22.3423C113.261 22.1203 112.981 22.0092 112.633 22.0092C112.397 22.0092 112.185 22.0689 111.996 22.1882C111.811 22.3042 111.663 22.4683 111.554 22.6804C111.445 22.8892 111.39 23.1345 111.39 23.4162V28H109.272ZM123.076 30.8636C122.807 30.8636 122.555 30.8421 122.32 30.799C122.088 30.7592 121.896 30.7079 121.743 30.6449L122.22 29.0639C122.469 29.1402 122.693 29.1816 122.892 29.1882C123.094 29.1948 123.268 29.1484 123.414 29.049C123.563 28.9496 123.684 28.7805 123.777 28.5419L123.901 28.2188L121.161 20.3636H123.389L124.97 25.9716H125.049L126.645 20.3636H128.887L125.919 28.8253C125.777 29.2363 125.583 29.5942 125.338 29.8991C125.096 30.2074 124.789 30.4444 124.418 30.6101C124.047 30.7791 123.599 30.8636 123.076 30.8636ZM138.995 21.3828H136.817C136.777 21.1011 136.696 20.8509 136.573 20.6321C136.451 20.41 136.293 20.2211 136.101 20.0653C135.909 19.9096 135.687 19.7902 135.435 19.7074C135.186 19.6245 134.916 19.5831 134.625 19.5831C134.098 19.5831 133.639 19.714 133.247 19.9759C132.856 20.2344 132.553 20.6122 132.338 21.1094C132.122 21.6032 132.014 22.2031 132.014 22.9091C132.014 23.6349 132.122 24.2448 132.338 24.7386C132.556 25.2325 132.861 25.6054 133.252 25.8572C133.643 26.1091 134.096 26.2351 134.61 26.2351C134.898 26.2351 135.165 26.197 135.41 26.1207C135.659 26.0445 135.879 25.9335 136.071 25.7876C136.264 25.6385 136.423 25.4579 136.549 25.2457C136.678 25.0336 136.767 24.7917 136.817 24.5199L138.995 24.5298C138.938 24.9972 138.797 25.4479 138.572 25.8821C138.35 26.313 138.05 26.6991 137.672 27.0405C137.298 27.3786 136.85 27.647 136.33 27.8459C135.813 28.0414 135.228 28.1392 134.575 28.1392C133.667 28.1392 132.855 27.9337 132.139 27.5227C131.426 27.1117 130.863 26.5168 130.448 25.7379C130.037 24.959 129.832 24.0161 129.832 22.9091C129.832 21.7988 130.041 20.8542 130.458 20.0753C130.876 19.2964 131.443 18.7031 132.159 18.2955C132.875 17.8845 133.68 17.679 134.575 17.679C135.165 17.679 135.712 17.7618 136.215 17.9276C136.723 18.0933 137.172 18.3352 137.563 18.6534C137.954 18.9683 138.272 19.3544 138.517 19.8118C138.766 20.2692 138.925 20.7929 138.995 21.3828ZM140.498 28V20.3636H142.616V28H140.498ZM141.562 19.3793C141.248 19.3793 140.977 19.2749 140.752 19.0661C140.53 18.8539 140.419 18.6004 140.419 18.3054C140.419 18.0137 140.53 17.7635 140.752 17.5547C140.977 17.3426 141.248 17.2365 141.562 17.2365C141.877 17.2365 142.146 17.3426 142.368 17.5547C142.593 17.7635 142.706 18.0137 142.706 18.3054C142.706 18.6004 142.593 18.8539 142.368 19.0661C142.146 19.2749 141.877 19.3793 141.562 19.3793ZM144.313 28V20.3636H146.366V21.696H146.446C146.585 21.2221 146.819 20.8641 147.147 20.6222C147.475 20.3769 147.853 20.2543 148.28 20.2543C148.386 20.2543 148.501 20.2609 148.623 20.2741C148.746 20.2874 148.854 20.3056 148.946 20.3288V22.2081C148.847 22.1783 148.709 22.1518 148.534 22.1286C148.358 22.1054 148.197 22.0938 148.052 22.0938C147.74 22.0938 147.462 22.1617 147.216 22.2976C146.974 22.4302 146.782 22.6158 146.64 22.8544C146.5 23.093 146.431 23.3681 146.431 23.6797V28H144.313ZM153.136 28.1491C152.354 28.1491 151.681 27.9834 151.118 27.652C150.558 27.3172 150.127 26.8532 149.825 26.2599C149.527 25.6667 149.378 24.9839 149.378 24.2116C149.378 23.4295 149.529 22.7434 149.83 22.1534C150.135 21.5601 150.568 21.0978 151.128 20.7663C151.688 20.4316 152.354 20.2642 153.126 20.2642C153.793 20.2642 154.376 20.3852 154.876 20.6271C155.377 20.8691 155.773 21.2088 156.065 21.6463C156.356 22.0838 156.517 22.5975 156.547 23.1875H154.548C154.492 22.8063 154.343 22.4998 154.101 22.2678C153.862 22.0324 153.549 21.9148 153.161 21.9148C152.833 21.9148 152.546 22.0043 152.301 22.1832C152.059 22.3589 151.87 22.6158 151.734 22.9538C151.598 23.2919 151.53 23.7012 151.53 24.1818C151.53 24.669 151.597 25.0833 151.729 25.4247C151.865 25.7661 152.056 26.0263 152.301 26.2053C152.546 26.3842 152.833 26.4737 153.161 26.4737C153.403 26.4737 153.62 26.424 153.812 26.3246C154.008 26.2251 154.169 26.081 154.295 25.892C154.424 25.6998 154.508 25.4695 154.548 25.201H156.547C156.514 25.7843 156.355 26.2981 156.07 26.7422C155.788 27.183 155.398 27.5277 154.901 27.7763C154.404 28.0249 153.816 28.1491 153.136 28.1491ZM160.021 17.8182V28H157.903V17.8182H160.021ZM165.197 28.1491C164.412 28.1491 163.736 27.9901 163.169 27.6719C162.605 27.3504 162.171 26.8963 161.866 26.3097C161.561 25.7197 161.409 25.022 161.409 24.2166C161.409 23.4311 161.561 22.7417 161.866 22.1484C162.171 21.5552 162.601 21.0928 163.154 20.7614C163.711 20.4299 164.364 20.2642 165.113 20.2642C165.617 20.2642 166.086 20.3454 166.52 20.5078C166.957 20.6669 167.338 20.9072 167.663 21.2287C167.991 21.5502 168.247 21.9545 168.429 22.4418C168.611 22.9257 168.702 23.4924 168.702 24.142V24.7237H162.254V23.4112H166.709C166.709 23.1063 166.642 22.8362 166.51 22.6009C166.377 22.3655 166.193 22.1816 165.958 22.049C165.726 21.9131 165.456 21.8452 165.148 21.8452C164.826 21.8452 164.541 21.9197 164.293 22.0689C164.047 22.2147 163.855 22.4119 163.716 22.6605C163.577 22.9058 163.505 23.1792 163.502 23.4808V24.7287C163.502 25.1065 163.572 25.433 163.711 25.7081C163.853 25.9832 164.054 26.1953 164.312 26.3445C164.571 26.4936 164.878 26.5682 165.232 26.5682C165.467 26.5682 165.683 26.535 165.878 26.4688C166.074 26.4025 166.241 26.303 166.381 26.1705C166.52 26.0379 166.626 25.8755 166.699 25.6832L168.658 25.8125C168.558 26.2831 168.354 26.6941 168.046 27.0455C167.741 27.3935 167.347 27.6652 166.863 27.8608C166.382 28.053 165.827 28.1491 165.197 28.1491Z" fill="white"/>
<path d="M231 56H16V40H231V56Z" stroke="#E5E7EB"/>
<path d="M59.0772 43.3352L58.7875 44.3239H53.2647L53.5545 43.3352H59.0772ZM56.4863 50L53.367 46.1818L53.35 45.4659H54.9011C55.3045 45.4659 55.6483 45.4091 55.9324 45.2955C56.2164 45.179 56.4338 45.0057 56.5843 44.7756C56.7349 44.5426 56.8102 44.25 56.8102 43.8977C56.8102 43.3778 56.6539 42.9702 56.3414 42.6747C56.0289 42.3764 55.5488 42.2273 54.9011 42.2273H53.2647L53.5545 41.2727H54.9011C55.5943 41.2727 56.1625 41.3878 56.6056 41.6179C57.0517 41.8452 57.3812 42.1577 57.5943 42.5554C57.8102 42.9503 57.9181 43.3977 57.9181 43.8977C57.9181 44.3494 57.8187 44.7656 57.6199 45.1463C57.4238 45.5241 57.1085 45.8281 56.6738 46.0582C56.242 46.2884 55.671 46.4034 54.9608 46.4034H54.9352L57.8159 49.9318V50H56.4863ZM59.0772 41.2727L58.7875 42.2614L54.4409 42.2273L54.7306 41.2727H59.0772ZM60.3077 50V49.233L63.1884 46.0795C63.5265 45.7102 63.8049 45.3892 64.0236 45.1165C64.2424 44.8409 64.4043 44.5824 64.5094 44.3409C64.6174 44.0966 64.6713 43.8409 64.6713 43.5739C64.6713 43.267 64.5975 43.0014 64.4498 42.777C64.3049 42.5526 64.106 42.3793 63.8532 42.2571C63.6003 42.1349 63.3162 42.0739 63.0009 42.0739C62.6657 42.0739 62.373 42.1435 62.123 42.2827C61.8759 42.419 61.6841 42.6108 61.5478 42.858C61.4142 43.1051 61.3475 43.3949 61.3475 43.7273H60.3418C60.3418 43.2159 60.4597 42.767 60.6955 42.3807C60.9313 41.9943 61.2523 41.6932 61.6586 41.4773C62.0676 41.2614 62.5265 41.1534 63.035 41.1534C63.5463 41.1534 63.9995 41.2614 64.3944 41.4773C64.7892 41.6932 65.0989 41.9844 65.3233 42.3509C65.5478 42.7173 65.66 43.125 65.66 43.5739C65.66 43.8949 65.6017 44.2088 65.4853 44.5156C65.3716 44.8196 65.1728 45.1591 64.8887 45.5341C64.6074 45.9062 64.2168 46.3608 63.7168 46.8977L61.7566 48.9943V49.0625H65.8134V50H60.3077ZM70.4199 50.1193C69.7779 50.1193 69.231 49.9446 68.7793 49.5952C68.3276 49.2429 67.9824 48.733 67.7438 48.0653C67.5051 47.3949 67.3858 46.5852 67.3858 45.6364C67.3858 44.6932 67.5051 43.8878 67.7438 43.2202C67.9853 42.5497 68.3319 42.0384 68.7836 41.6861C69.2381 41.331 69.7836 41.1534 70.4199 41.1534C71.0563 41.1534 71.6003 41.331 72.052 41.6861C72.5066 42.0384 72.8532 42.5497 73.0918 43.2202C73.3333 43.8878 73.454 44.6932 73.454 45.6364C73.454 46.5852 73.3347 47.3949 73.0961 48.0653C72.8574 48.733 72.5123 49.2429 72.0605 49.5952C71.6088 49.9446 71.062 50.1193 70.4199 50.1193ZM70.4199 49.1818C71.0563 49.1818 71.5506 48.875 71.9029 48.2614C72.2551 47.6477 72.4313 46.7727 72.4313 45.6364C72.4313 44.8807 72.3503 44.2372 72.1884 43.706C72.0293 43.1747 71.7992 42.7699 71.498 42.4915C71.1998 42.2131 70.8404 42.0739 70.4199 42.0739C69.7892 42.0739 69.2963 42.3849 68.9412 43.0071C68.5861 43.6264 68.4086 44.5028 68.4086 45.6364C68.4086 46.392 68.4881 47.0341 68.6472 47.5625C68.8063 48.0909 69.035 48.4929 69.3333 48.7685C69.6344 49.044 69.9966 49.1818 70.4199 49.1818ZM77.9199 50.1193C77.2779 50.1193 76.731 49.9446 76.2793 49.5952C75.8276 49.2429 75.4824 48.733 75.2438 48.0653C75.0051 47.3949 74.8858 46.5852 74.8858 45.6364C74.8858 44.6932 75.0051 43.8878 75.2438 43.2202C75.4853 42.5497 75.8319 42.0384 76.2836 41.6861C76.7381 41.331 77.2836 41.1534 77.9199 41.1534C78.5563 41.1534 79.1003 41.331 79.552 41.6861C80.0066 42.0384 80.3532 42.5497 80.5918 43.2202C80.8333 43.8878 80.954 44.6932 80.954 45.6364C80.954 46.5852 80.8347 47.3949 80.5961 48.0653C80.3574 48.733 80.0123 49.2429 79.5605 49.5952C79.1088 49.9446 78.562 50.1193 77.9199 50.1193ZM77.9199 49.1818C78.5563 49.1818 79.0506 48.875 79.4029 48.2614C79.7551 47.6477 79.9313 46.7727 79.9313 45.6364C79.9313 44.8807 79.8503 44.2372 79.6884 43.706C79.5293 43.1747 79.2992 42.7699 78.998 42.4915C78.6998 42.2131 78.3404 42.0739 77.9199 42.0739C77.2892 42.0739 76.7963 42.3849 76.4412 43.0071C76.0861 43.6264 75.9086 44.5028 75.9086 45.6364C75.9086 46.392 75.9881 47.0341 76.1472 47.5625C76.3063 48.0909 76.535 48.4929 76.8333 48.7685C77.1344 49.044 77.4966 49.1818 77.9199 49.1818ZM85.4199 50.1193C84.7779 50.1193 84.231 49.9446 83.7793 49.5952C83.3276 49.2429 82.9824 48.733 82.7438 48.0653C82.5051 47.3949 82.3858 46.5852 82.3858 45.6364C82.3858 44.6932 82.5051 43.8878 82.7438 43.2202C82.9853 42.5497 83.3319 42.0384 83.7836 41.6861C84.2381 41.331 84.7836 41.1534 85.4199 41.1534C86.0563 41.1534 86.6003 41.331 87.052 41.6861C87.5066 42.0384 87.8532 42.5497 88.0918 43.2202C88.3333 43.8878 88.454 44.6932 88.454 45.6364C88.454 46.5852 88.3347 47.3949 88.0961 48.0653C87.8574 48.733 87.5123 49.2429 87.0605 49.5952C86.6088 49.9446 86.062 50.1193 85.4199 50.1193ZM85.4199 49.1818C86.0563 49.1818 86.5506 48.875 86.9029 48.2614C87.2551 47.6477 87.4313 46.7727 87.4313 45.6364C87.4313 44.8807 87.3503 44.2372 87.1884 43.706C87.0293 43.1747 86.7992 42.7699 86.498 42.4915C86.1998 42.2131 85.8404 42.0739 85.4199 42.0739C84.7892 42.0739 84.2963 42.3849 83.9412 43.0071C83.5861 43.6264 83.4086 44.5028 83.4086 45.6364C83.4086 46.392 83.4881 47.0341 83.6472 47.5625C83.8063 48.0909 84.035 48.4929 84.3333 48.7685C84.6344 49.044 84.9966 49.1818 85.4199 49.1818ZM95.187 50L92.8006 41.2727H93.8745L95.6983 48.3807H95.7836L97.6415 41.2727H98.8347L100.693 48.3807H100.778L102.602 41.2727H103.676L101.289 50H100.198L98.2722 43.0455H98.204L96.2779 50H95.187ZM104.992 50V41.2727H110.259V42.2102H106.049V45.1591H109.987V46.0966H106.049V49.0625H110.328V50H104.992ZM112.164 50V41.2727H113.221V49.0625H117.278V50H112.164ZM125.597 44H124.54C124.478 43.696 124.368 43.429 124.212 43.1989C124.059 42.9688 123.871 42.7756 123.65 42.6193C123.431 42.4602 123.188 42.3409 122.921 42.2614C122.654 42.1818 122.376 42.142 122.086 42.142C121.557 42.142 121.079 42.2756 120.65 42.5426C120.224 42.8097 119.884 43.2031 119.631 43.723C119.381 44.2429 119.256 44.8807 119.256 45.6364C119.256 46.392 119.381 47.0298 119.631 47.5497C119.884 48.0696 120.224 48.4631 120.65 48.7301C121.079 48.9972 121.557 49.1307 122.086 49.1307C122.376 49.1307 122.654 49.0909 122.921 49.0114C123.188 48.9318 123.431 48.8139 123.65 48.6577C123.871 48.4986 124.059 48.304 124.212 48.0739C124.368 47.8409 124.478 47.5739 124.54 47.2727H125.597C125.518 47.7187 125.373 48.1179 125.162 48.4702C124.952 48.8224 124.691 49.1222 124.378 49.3693C124.066 49.6136 123.715 49.7997 123.326 49.9276C122.939 50.0554 122.526 50.1193 122.086 50.1193C121.341 50.1193 120.68 49.9375 120.1 49.5739C119.52 49.2102 119.064 48.6932 118.732 48.0227C118.4 47.3523 118.233 46.5568 118.233 45.6364C118.233 44.7159 118.4 43.9205 118.732 43.25C119.064 42.5795 119.52 42.0625 120.1 41.6989C120.68 41.3352 121.341 41.1534 122.086 41.1534C122.526 41.1534 122.939 41.2173 123.326 41.3452C123.715 41.473 124.066 41.6605 124.378 41.9077C124.691 42.152 124.952 42.4503 125.162 42.8026C125.373 43.152 125.518 43.5511 125.597 44ZM134.669 45.6364C134.669 46.5568 134.502 47.3523 134.17 48.0227C133.838 48.6932 133.382 49.2102 132.802 49.5739C132.222 49.9375 131.561 50.1193 130.816 50.1193C130.072 50.1193 129.41 49.9375 128.83 49.5739C128.251 49.2102 127.795 48.6932 127.463 48.0227C127.13 47.3523 126.964 46.5568 126.964 45.6364C126.964 44.7159 127.13 43.9205 127.463 43.25C127.795 42.5795 128.251 42.0625 128.83 41.6989C129.41 41.3352 130.072 41.1534 130.816 41.1534C131.561 41.1534 132.222 41.3352 132.802 41.6989C133.382 42.0625 133.838 42.5795 134.17 43.25C134.502 43.9205 134.669 44.7159 134.669 45.6364ZM133.646 45.6364C133.646 44.8807 133.519 44.2429 133.267 43.723C133.017 43.2031 132.677 42.8097 132.248 42.5426C131.822 42.2756 131.345 42.142 130.816 42.142C130.288 42.142 129.809 42.2756 129.38 42.5426C128.954 42.8097 128.615 43.2031 128.362 43.723C128.112 44.2429 127.987 44.8807 127.987 45.6364C127.987 46.392 128.112 47.0298 128.362 47.5497C128.615 48.0696 128.954 48.4631 129.38 48.7301C129.809 48.9972 130.288 49.1307 130.816 49.1307C131.345 49.1307 131.822 48.9972 132.248 48.7301C132.677 48.4631 133.017 48.0696 133.267 47.5497C133.519 47.0298 133.646 46.392 133.646 45.6364ZM136.445 41.2727H137.707L140.673 48.517H140.775L143.741 41.2727H145.002V50H144.014V43.3693H143.928L141.201 50H140.247L137.519 43.3693H137.434V50H136.445V41.2727ZM147.121 50V41.2727H152.388V42.2102H148.178V45.1591H152.116V46.0966H148.178V49.0625H152.456V50H147.121ZM157.668 50V41.2727H160.719C161.327 41.2727 161.829 41.3778 162.224 41.5881C162.618 41.7955 162.912 42.0753 163.106 42.4276C163.299 42.777 163.395 43.1648 163.395 43.5909C163.395 43.9659 163.329 44.2756 163.195 44.5199C163.064 44.7642 162.891 44.9574 162.675 45.0994C162.462 45.2415 162.231 45.3466 161.981 45.4148V45.5C162.248 45.517 162.516 45.6108 162.786 45.7812C163.056 45.9517 163.282 46.196 163.464 46.5142C163.645 46.8324 163.736 47.2216 163.736 47.6818C163.736 48.1193 163.637 48.5128 163.438 48.8622C163.239 49.2116 162.925 49.4886 162.496 49.6932C162.067 49.8977 161.509 50 160.822 50H157.668ZM158.725 49.0625H160.822C161.512 49.0625 162.002 48.929 162.292 48.6619C162.584 48.392 162.731 48.0653 162.731 47.6818C162.731 47.3864 162.655 47.1136 162.505 46.8636C162.354 46.6108 162.14 46.4091 161.861 46.2585C161.583 46.1051 161.253 46.0284 160.873 46.0284H158.725V49.0625ZM158.725 45.108H160.685C161.003 45.108 161.29 45.0455 161.546 44.9205C161.805 44.7955 162.009 44.6193 162.16 44.392C162.313 44.1648 162.39 43.8977 162.39 43.5909C162.39 43.2074 162.256 42.8821 161.989 42.6151C161.722 42.3452 161.299 42.2102 160.719 42.2102H158.725V45.108ZM172.836 45.6364C172.836 46.5568 172.67 47.3523 172.338 48.0227C172.006 48.6932 171.55 49.2102 170.97 49.5739C170.39 49.9375 169.729 50.1193 168.984 50.1193C168.24 50.1193 167.578 49.9375 166.998 49.5739C166.419 49.2102 165.963 48.6932 165.631 48.0227C165.298 47.3523 165.132 46.5568 165.132 45.6364C165.132 44.7159 165.298 43.9205 165.631 43.25C165.963 42.5795 166.419 42.0625 166.998 41.6989C167.578 41.3352 168.24 41.1534 168.984 41.1534C169.729 41.1534 170.39 41.3352 170.97 41.6989C171.55 42.0625 172.006 42.5795 172.338 43.25C172.67 43.9205 172.836 44.7159 172.836 45.6364ZM171.814 45.6364C171.814 44.8807 171.687 44.2429 171.434 43.723C171.184 43.2031 170.845 42.8097 170.416 42.5426C169.99 42.2756 169.513 42.142 168.984 42.142C168.456 42.142 167.977 42.2756 167.548 42.5426C167.122 42.8097 166.782 43.2031 166.53 43.723C166.28 44.2429 166.155 44.8807 166.155 45.6364C166.155 46.392 166.28 47.0298 166.53 47.5497C166.782 48.0696 167.122 48.4631 167.548 48.7301C167.977 48.9972 168.456 49.1307 168.984 49.1307C169.513 49.1307 169.99 48.9972 170.416 48.7301C170.845 48.4631 171.184 48.0696 171.434 47.5497C171.687 47.0298 171.814 46.392 171.814 45.6364ZM181.534 41.2727V50H180.511L175.756 43.1477H175.67V50H174.613V41.2727H175.636L180.409 48.142H180.494V41.2727H181.534ZM189.376 41.2727H190.433V47.0511C190.433 47.6477 190.292 48.1804 190.011 48.6491C189.732 49.1151 189.339 49.483 188.83 49.7528C188.322 50.0199 187.725 50.1534 187.041 50.1534C186.356 50.1534 185.759 50.0199 185.251 49.7528C184.742 49.483 184.347 49.1151 184.066 48.6491C183.788 48.1804 183.649 47.6477 183.649 47.0511V41.2727H184.705V46.9659C184.705 47.392 184.799 47.7713 184.987 48.1037C185.174 48.4332 185.441 48.6932 185.788 48.8835C186.137 49.071 186.555 49.1648 187.041 49.1648C187.526 49.1648 187.944 49.071 188.294 48.8835C188.643 48.6932 188.91 48.4332 189.095 48.1037C189.282 47.7713 189.376 47.392 189.376 46.9659V41.2727ZM197.316 43.4545C197.265 43.0227 197.057 42.6875 196.694 42.4489C196.33 42.2102 195.884 42.0909 195.356 42.0909C194.969 42.0909 194.631 42.1534 194.341 42.2784C194.055 42.4034 193.83 42.5753 193.668 42.794C193.509 43.0128 193.43 43.2614 193.43 43.5398C193.43 43.7727 193.485 43.973 193.596 44.1406C193.709 44.3054 193.854 44.4432 194.03 44.554C194.206 44.6619 194.391 44.7514 194.584 44.8224C194.778 44.8906 194.955 44.946 195.117 44.9886L196.003 45.2273C196.231 45.2869 196.483 45.3693 196.762 45.4744C197.043 45.5795 197.312 45.723 197.567 45.9048C197.826 46.0838 198.039 46.3139 198.206 46.5952C198.374 46.8764 198.458 47.2216 198.458 47.6307C198.458 48.1023 198.334 48.5284 198.087 48.9091C197.843 49.2898 197.485 49.5923 197.013 49.8168C196.545 50.0412 195.975 50.1534 195.305 50.1534C194.68 50.1534 194.138 50.0526 193.681 49.8509C193.226 49.6491 192.868 49.3679 192.607 49.0071C192.349 48.6463 192.202 48.2273 192.168 47.75H193.259C193.287 48.0795 193.398 48.3523 193.591 48.5682C193.787 48.7812 194.035 48.9403 194.333 49.0455C194.634 49.1477 194.958 49.1989 195.305 49.1989C195.708 49.1989 196.07 49.1335 196.391 49.0028C196.712 48.8693 196.966 48.6847 197.154 48.4489C197.341 48.2102 197.435 47.9318 197.435 47.6136C197.435 47.3239 197.354 47.0881 197.192 46.9062C197.03 46.7244 196.817 46.5767 196.553 46.4631C196.289 46.3494 196.003 46.25 195.697 46.1648L194.623 45.858C193.941 45.6619 193.401 45.3821 193.003 45.0185C192.606 44.6548 192.407 44.179 192.407 43.5909C192.407 43.1023 192.539 42.6761 192.803 42.3125C193.07 41.946 193.428 41.6619 193.877 41.4602C194.329 41.2557 194.833 41.1534 195.39 41.1534C195.952 41.1534 196.452 41.2543 196.89 41.456C197.327 41.6548 197.674 41.9276 197.93 42.2741C198.188 42.6207 198.324 43.0142 198.339 43.4545H197.316Z" fill="white"/>
<path d="M183.516 65C185.725 65 187.516 66.7909 187.516 69V85C187.516 87.2091 185.725 89 183.516 89H63.4688C61.2596 89 59.4688 87.2091 59.4688 85V69C59.4688 66.7909 61.2596 65 63.4688 65H183.516Z" fill="white"/>
<path d="M183.516 65C185.725 65 187.516 66.7909 187.516 69V85C187.516 87.2091 185.725 89 183.516 89H63.4688C61.2596 89 59.4688 87.2091 59.4688 85V69C59.4688 66.7909 61.2596 65 63.4688 65H183.516Z" stroke="#E5E7EB"/>
<path d="M74.2468 82H71.1531V73.2727H74.2724C75.1502 73.2727 75.9059 73.4474 76.5394 73.7969C77.1729 74.1435 77.6602 74.642 78.0011 75.2926C78.3448 75.9432 78.5167 76.7216 78.5167 77.6278C78.5167 78.5369 78.3448 79.3182 78.0011 79.9716C77.6602 80.625 77.1701 81.1264 76.5309 81.4759C75.8945 81.8253 75.1332 82 74.2468 82ZM72.9982 80.419H74.1701C74.7156 80.419 75.1744 80.3224 75.5465 80.1293C75.9215 79.9332 76.2028 79.6307 76.3903 79.2216C76.5806 78.8097 76.6758 78.2784 76.6758 77.6278C76.6758 76.983 76.5806 76.456 76.3903 76.0469C76.2028 75.6378 75.9229 75.3366 75.5508 75.1435C75.1786 74.9503 74.7198 74.8537 74.1744 74.8537H72.9982V80.419ZM87.9034 77.6364C87.9034 78.5881 87.723 79.3977 87.3622 80.0653C87.0043 80.733 86.5156 81.2429 85.8963 81.5952C85.2798 81.9446 84.5866 82.1193 83.8168 82.1193C83.0412 82.1193 82.3452 81.9432 81.7287 81.5909C81.1122 81.2386 80.625 80.7287 80.267 80.0611C79.9091 79.3935 79.7301 78.5852 79.7301 77.6364C79.7301 76.6847 79.9091 75.875 80.267 75.2074C80.625 74.5398 81.1122 74.0312 81.7287 73.6818C82.3452 73.3295 83.0412 73.1534 83.8168 73.1534C84.5866 73.1534 85.2798 73.3295 85.8963 73.6818C86.5156 74.0312 87.0043 74.5398 87.3622 75.2074C87.723 75.875 87.9034 76.6847 87.9034 77.6364ZM86.0327 77.6364C86.0327 77.0199 85.9403 76.5 85.7557 76.0767C85.5739 75.6534 85.3168 75.3324 84.9844 75.1136C84.652 74.8949 84.2628 74.7855 83.8168 74.7855C83.3707 74.7855 82.9815 74.8949 82.6491 75.1136C82.3168 75.3324 82.0582 75.6534 81.8736 76.0767C81.6918 76.5 81.6009 77.0199 81.6009 77.6364C81.6009 78.2528 81.6918 78.7727 81.8736 79.196C82.0582 79.6193 82.3168 79.9403 82.6491 80.1591C82.9815 80.3778 83.3707 80.4872 83.8168 80.4872C84.2628 80.4872 84.652 80.3778 84.9844 80.1591C85.3168 79.9403 85.5739 79.6193 85.7557 79.196C85.9403 78.7727 86.0327 78.2528 86.0327 77.6364ZM90.9066 82L88.4094 73.2727H90.4251L91.8697 79.3366H91.9421L93.5359 73.2727H95.2617L96.8512 79.3494H96.9279L98.3725 73.2727H100.388L97.891 82H96.0927L94.4308 76.294H94.3626L92.7049 82H90.9066ZM108.675 73.2727V82H107.082L103.285 76.5071H103.221V82H101.376V73.2727H102.995L106.762 78.7614H106.839V73.2727H108.675ZM110.2 82V73.2727H112.045V80.4787H115.787V82H110.2ZM124.689 77.6364C124.689 78.5881 124.508 79.3977 124.147 80.0653C123.789 80.733 123.301 81.2429 122.681 81.5952C122.065 81.9446 121.372 82.1193 120.602 82.1193C119.826 82.1193 119.13 81.9432 118.514 81.5909C117.897 81.2386 117.41 80.7287 117.052 80.0611C116.694 79.3935 116.515 78.5852 116.515 77.6364C116.515 76.6847 116.694 75.875 117.052 75.2074C117.41 74.5398 117.897 74.0312 118.514 73.6818C119.13 73.3295 119.826 73.1534 120.602 73.1534C121.372 73.1534 122.065 73.3295 122.681 73.6818C123.301 74.0312 123.789 74.5398 124.147 75.2074C124.508 75.875 124.689 76.6847 124.689 77.6364ZM122.818 77.6364C122.818 77.0199 122.725 76.5 122.541 76.0767C122.359 75.6534 122.102 75.3324 121.77 75.1136C121.437 74.8949 121.048 74.7855 120.602 74.7855C120.156 74.7855 119.767 74.8949 119.434 75.1136C119.102 75.3324 118.843 75.6534 118.659 76.0767C118.477 76.5 118.386 77.0199 118.386 77.6364C118.386 78.2528 118.477 78.7727 118.659 79.196C118.843 79.6193 119.102 79.9403 119.434 80.1591C119.767 80.3778 120.156 80.4872 120.602 80.4872C121.048 80.4872 121.437 80.3778 121.77 80.1591C122.102 79.9403 122.359 79.6193 122.541 79.196C122.725 78.7727 122.818 78.2528 122.818 77.6364ZM127.067 82H125.09L128.103 73.2727H130.481L133.489 82H131.512L129.326 75.267H129.258L127.067 82ZM126.944 78.5696H131.614V80.0099H126.944V78.5696ZM137.634 82H134.54V73.2727H137.659C138.537 73.2727 139.293 73.4474 139.926 73.7969C140.56 74.1435 141.047 74.642 141.388 75.2926C141.732 75.9432 141.903 76.7216 141.903 77.6278C141.903 78.5369 141.732 79.3182 141.388 79.9716C141.047 80.625 140.557 81.1264 139.918 81.4759C139.281 81.8253 138.52 82 137.634 82ZM136.385 80.419H137.557C138.102 80.419 138.561 80.3224 138.933 80.1293C139.308 79.9332 139.589 79.6307 139.777 79.2216C139.967 78.8097 140.062 78.2784 140.062 77.6278C140.062 76.983 139.967 76.456 139.777 76.0469C139.589 75.6378 139.31 75.3366 138.938 75.1435C138.565 74.9503 138.107 74.8537 137.561 74.8537H136.385V80.419ZM153.347 73.2727V82H151.754L147.957 76.5071H147.893V82H146.048V73.2727H147.667L151.434 78.7614H151.511V73.2727H153.347ZM162.892 77.6364C162.892 78.5881 162.711 79.3977 162.35 80.0653C161.993 80.733 161.504 81.2429 160.885 81.5952C160.268 81.9446 159.575 82.1193 158.805 82.1193C158.029 82.1193 157.333 81.9432 156.717 81.5909C156.1 81.2386 155.613 80.7287 155.255 80.0611C154.897 79.3935 154.718 78.5852 154.718 77.6364C154.718 76.6847 154.897 75.875 155.255 75.2074C155.613 74.5398 156.1 74.0312 156.717 73.6818C157.333 73.3295 158.029 73.1534 158.805 73.1534C159.575 73.1534 160.268 73.3295 160.885 73.6818C161.504 74.0312 161.993 74.5398 162.35 75.2074C162.711 75.875 162.892 76.6847 162.892 77.6364ZM161.021 77.6364C161.021 77.0199 160.929 76.5 160.744 76.0767C160.562 75.6534 160.305 75.3324 159.973 75.1136C159.64 74.8949 159.251 74.7855 158.805 74.7855C158.359 74.7855 157.97 74.8949 157.637 75.1136C157.305 75.3324 157.047 75.6534 156.862 76.0767C156.68 76.5 156.589 77.0199 156.589 77.6364C156.589 78.2528 156.68 78.7727 156.862 79.196C157.047 79.6193 157.305 79.9403 157.637 80.1591C157.97 80.3778 158.359 80.4872 158.805 80.4872C159.251 80.4872 159.64 80.3778 159.973 80.1591C160.305 79.9403 160.562 79.6193 160.744 79.196C160.929 78.7727 161.021 78.2528 161.021 77.6364ZM165.895 82L163.398 73.2727H165.413L166.858 79.3366H166.93L168.524 73.2727H170.25L171.839 79.3494H171.916L173.361 73.2727H175.376L172.879 82H171.081L169.419 76.294H169.351L167.693 82H165.895Z" fill="#F97316"/>
<path d="M287 20.5C291.418 20.5 295 24.0817 295 28.5V76.5C295 80.9183 291.418 84.5 287 84.5H239C234.582 84.5 231 80.9183 231 76.5V28.5C231 24.0817 234.582 20.5 239 20.5H287Z" fill="white" fill-opacity="0.2"/>
<path d="M287 20.5C291.418 20.5 295 24.0817 295 28.5V76.5C295 80.9183 291.418 84.5 287 84.5H239C234.582 84.5 231 80.9183 231 76.5V28.5C231 24.0817 234.582 20.5 239 20.5H287Z" stroke="#E5E7EB"/>
<path d="M273.5 68.5H252.5V36.5H273.5V68.5Z" stroke="#E5E7EB"/>
<g clip-path="url(#clip0_203_776)">
<path d="M263 51.5C264.591 51.5 266.117 50.8679 267.243 49.7426C268.368 48.6174 269 47.0913 269 45.5C269 43.9087 268.368 42.3826 267.243 41.2574C266.117 40.1321 264.591 39.5 263 39.5C261.409 39.5 259.883 40.1321 258.757 41.2574C257.632 42.3826 257 43.9087 257 45.5C257 47.0913 257.632 48.6174 258.757 49.7426C259.883 50.8679 261.409 51.5 263 51.5ZM260.858 53.75C256.241 53.75 252.5 57.4906 252.5 62.1078C252.5 62.8766 253.123 63.5 253.892 63.5H272.108C272.877 63.5 273.5 62.8766 273.5 62.1078C273.5 57.4906 269.759 53.75 265.142 53.75H260.858Z" fill="white"/>
</g>
<defs>
<linearGradient id="paint0_linear_203_776" x1="0" y1="52.5" x2="311" y2="52.5" gradientUnits="userSpaceOnUse">
<stop stop-color="#FB923C"/>
<stop offset="1" stop-color="#EF4444"/>
</linearGradient>
<clipPath id="clip0_203_776">
<path d="M252.5 39.5H273.5V63.5H252.5V39.5Z" fill="white"/>
</clipPath>
</defs>
</svg>
