<svg width="49" height="48" viewBox="0 0 49 48" fill="none" xmlns="http://www.w3.org/2000/svg">
<path d="M0.5 12C0.5 5.37258 5.87258 0 12.5 0H36.5C43.1274 0 48.5 5.37258 48.5 12V36C48.5 42.6274 43.1274 48 36.5 48H12.5C5.87258 48 0.5 42.6274 0.5 36V12Z" fill="#F3E8FF"/>
<g clip-path="url(#clip0_488_181)">
<path d="M21.2973 15.1156C21.0266 14.4617 20.3129 14.1137 19.6309 14.3L16.5371 15.1438C15.9254 15.3125 15.5 15.868 15.5 16.5008C15.5 25.1984 22.5523 32.2508 31.25 32.2508C31.8828 32.2508 32.4383 31.8254 32.607 31.2137L33.4508 28.1199C33.6371 27.4379 33.2891 26.7242 32.6352 26.4535L29.2602 25.0473C28.6871 24.8082 28.0227 24.9734 27.6324 25.4551L26.2121 27.1883C23.7371 26.0176 21.7332 24.0137 20.5625 21.5387L22.2957 20.1219C22.7773 19.7281 22.9426 19.0672 22.7035 18.4942L21.2973 15.1192V15.1156Z" fill="#9333EA"/>
</g>
<defs>
<clipPath id="clip0_488_181">
<rect width="18" height="18" fill="white" transform="translate(15.5 14.25)"/>
</clipPath>
</defs>
</svg>
