<svg width="41" height="40" viewBox="0 0 41 40" fill="none" xmlns="http://www.w3.org/2000/svg">
<path d="M0.375 12C0.375 5.37258 5.74758 0 12.375 0H28.375C35.0024 0 40.375 5.37258 40.375 12V28C40.375 34.6274 35.0024 40 28.375 40H12.375C5.74758 40 0.375 34.6274 0.375 28V12Z" fill="#CFFAFE"/>
<path d="M13.375 13C12.8219 13 12.375 13.4469 12.375 14V21.5V23V25.5C12.375 26.3281 13.0469 27 13.875 27H26.875C27.7031 27 28.375 26.3281 28.375 25.5V21.5V16.7562C28.375 16.1875 27.7688 15.8281 27.2688 16.0969L22.375 18.7312V16.7562C22.375 16.1875 21.7688 15.8281 21.2688 16.0969L16.375 18.7312V14C16.375 13.4469 15.9281 13 15.375 13H13.375Z" fill="#0891B2"/>
</svg>
