<svg width="40" height="40" viewBox="0 0 40 40" fill="none" xmlns="http://www.w3.org/2000/svg">
<path d="M20 0C31.0457 0 40 8.95431 40 20C40 31.0457 31.0457 40 20 40C8.95431 40 0 31.0457 0 20C0 8.95431 8.95431 0 20 0Z" fill="url(#paint0_linear_221_185)"/>
<path d="M20 0C31.0457 0 40 8.95431 40 20C40 31.0457 31.0457 40 20 40C8.95431 40 0 31.0457 0 20C0 8.95431 8.95431 0 20 0Z" stroke="#E5E7EB"/>
<path d="M12.3054 24V15.2727H15.7486C16.4077 15.2727 16.9702 15.3906 17.4361 15.6264C17.9048 15.8594 18.2614 16.1903 18.5057 16.6193C18.7528 17.0455 18.8764 17.5469 18.8764 18.1236C18.8764 18.7031 18.7514 19.2017 18.5014 19.6193C18.2514 20.0341 17.8892 20.3523 17.4148 20.5739C16.9432 20.7955 16.3722 20.9062 15.7017 20.9062H13.3963V19.4233H15.4034C15.7557 19.4233 16.0483 19.375 16.2812 19.2784C16.5142 19.1818 16.6875 19.0369 16.8011 18.8438C16.9176 18.6506 16.9759 18.4105 16.9759 18.1236C16.9759 17.8338 16.9176 17.5895 16.8011 17.3906C16.6875 17.1918 16.5128 17.0412 16.277 16.9389C16.044 16.8338 15.75 16.7812 15.3949 16.7812H14.1506V24H12.3054ZM17.0185 20.0284L19.1875 24H17.1506L15.0284 20.0284H17.0185ZM25.9673 18.0938C25.9077 17.8864 25.8239 17.7031 25.7159 17.544C25.608 17.3821 25.4759 17.2457 25.3196 17.1349C25.1662 17.0213 24.9901 16.9347 24.7912 16.875C24.5952 16.8153 24.3778 16.7855 24.1392 16.7855C23.6932 16.7855 23.3011 16.8963 22.9631 17.1179C22.6278 17.3395 22.3665 17.6619 22.179 18.0852C21.9915 18.5057 21.8977 19.0199 21.8977 19.6278C21.8977 20.2358 21.9901 20.7528 22.1747 21.179C22.3594 21.6051 22.6207 21.9304 22.9588 22.1548C23.2969 22.3764 23.696 22.4872 24.1562 22.4872C24.5739 22.4872 24.9304 22.4134 25.2259 22.2656C25.5241 22.1151 25.7514 21.9034 25.9077 21.6307C26.0668 21.358 26.1463 21.0355 26.1463 20.6634L26.5213 20.7188H24.2713V19.3295H27.9233V20.429C27.9233 21.196 27.7614 21.8551 27.4375 22.4062C27.1136 22.9545 26.6676 23.3778 26.0994 23.6761C25.5312 23.9716 24.8807 24.1193 24.1477 24.1193C23.3295 24.1193 22.6108 23.9389 21.9915 23.5781C21.3722 23.2145 20.8892 22.6989 20.5426 22.0312C20.1989 21.3608 20.027 20.5653 20.027 19.6449C20.027 18.9375 20.1293 18.3068 20.3338 17.7528C20.5412 17.196 20.831 16.7244 21.2031 16.3381C21.5753 15.9517 22.0085 15.6577 22.5028 15.456C22.9972 15.2543 23.5327 15.1534 24.1094 15.1534C24.6037 15.1534 25.0639 15.2259 25.4901 15.3707C25.9162 15.5128 26.294 15.7145 26.6236 15.9759C26.956 16.2372 27.2273 16.5483 27.4375 16.9091C27.6477 17.267 27.7827 17.6619 27.8423 18.0938H25.9673Z" fill="white"/>
<defs>
<linearGradient id="paint0_linear_221_185" x1="0" y1="20" x2="40" y2="20" gradientUnits="userSpaceOnUse">
<stop stop-color="#FACC15"/>
<stop offset="1" stop-color="#3B82F6"/>
</linearGradient>
</defs>
</svg>
