<svg width="48" height="48" viewBox="0 0 48 48" fill="none" xmlns="http://www.w3.org/2000/svg">
<path d="M24 0C37.2548 0 48 10.7452 48 24C48 37.2548 37.2548 48 24 48C10.7452 48 0 37.2548 0 24C0 10.7452 10.7452 0 24 0Z" fill="#FEF08A"/>
<path d="M24 0C37.2548 0 48 10.7452 48 24C48 37.2548 37.2548 48 24 48C10.7452 48 0 37.2548 0 24C0 10.7452 10.7452 0 24 0Z" stroke="#E5E7EB"/>
<g clip-path="url(#clip0_909_261)">
<path d="M24.9025 14.5625C24.7369 14.2188 24.3869 14 24.0025 14C23.6182 14 23.2713 14.2188 23.1025 14.5625L21.0932 18.6969L16.6057 19.3594C16.2307 19.4156 15.9182 19.6781 15.8025 20.0375C15.6869 20.3969 15.7807 20.7937 16.0494 21.0594L19.3057 24.2812L18.5369 28.8344C18.4744 29.2094 18.6307 29.5906 18.94 29.8125C19.2494 30.0344 19.6588 30.0625 19.9963 29.8844L24.0057 27.7437L28.015 29.8844C28.3525 30.0625 28.7619 30.0375 29.0713 29.8125C29.3807 29.5875 29.5369 29.2094 29.4744 28.8344L28.7025 24.2812L31.9588 21.0594C32.2275 20.7937 32.3244 20.3969 32.2057 20.0375C32.0869 19.6781 31.7775 19.4156 31.4025 19.3594L26.9119 18.6969L24.9025 14.5625Z" fill="#CA8A04"/>
</g>
<defs>
<clipPath id="clip0_909_261">
<rect width="18" height="16" fill="white" transform="translate(15 14)"/>
</clipPath>
</defs>
</svg>
