<svg width="41" height="40" viewBox="0 0 41 40" fill="none" xmlns="http://www.w3.org/2000/svg">
<path d="M0.375 12C0.375 5.37258 5.74758 0 12.375 0H28.375C35.0024 0 40.375 5.37258 40.375 12V28C40.375 34.6274 35.0024 40 28.375 40H12.375C5.74758 40 0.375 34.6274 0.375 28V12Z" fill="#CCFBF1"/>
<g clip-path="url(#clip0_488_354)">
<path d="M23.875 15V15.0219C23.7094 15.0094 23.5437 15 23.375 15H19.375C18.8594 15 18.3594 15.0656 17.8812 15.1875C17.8781 15.125 17.875 15.0625 17.875 15C17.875 13.3438 19.2188 12 20.875 12C22.5312 12 23.875 13.3438 23.875 15ZM23.375 16C23.4844 16 23.5938 16.0031 23.7 16.0094C23.8313 16.0188 23.9625 16.0312 24.0938 16.05C24.6438 15.4094 25.4625 15 26.375 15H26.7344C27.0594 15 27.2969 15.3063 27.2188 15.6219L26.7875 17.3469C27.2812 17.8094 27.6844 18.3719 27.9594 19H28.375C28.9281 19 29.375 19.4469 29.375 20V23C29.375 23.5531 28.9281 24 28.375 24H27.375C27.0906 24.3781 26.7531 24.7156 26.375 25V27C26.375 27.5531 25.9281 28 25.375 28H24.375C23.8219 28 23.375 27.5531 23.375 27V26H19.375V27C19.375 27.5531 18.9281 28 18.375 28H17.375C16.8219 28 16.375 27.5531 16.375 27V25C15.2844 24.1812 14.5406 22.9281 14.4 21.5H13.5C12.325 21.5 11.375 20.55 11.375 19.375C11.375 18.2 12.325 17.25 13.5 17.25H13.625C14.0406 17.25 14.375 17.5844 14.375 18C14.375 18.4156 14.0406 18.75 13.625 18.75H13.5C13.1562 18.75 12.875 19.0312 12.875 19.375C12.875 19.7188 13.1562 20 13.5 20H14.475C14.8531 18.1312 16.2781 16.6406 18.1094 16.1625C18.5125 16.0563 18.9375 16 19.375 16H23.375ZM25.375 20.25C25.375 20.0511 25.296 19.8603 25.1553 19.7197C25.0147 19.579 24.8239 19.5 24.625 19.5C24.4261 19.5 24.2353 19.579 24.0947 19.7197C23.954 19.8603 23.875 20.0511 23.875 20.25C23.875 20.4489 23.954 20.6397 24.0947 20.7803C24.2353 20.921 24.4261 21 24.625 21C24.8239 21 25.0147 20.921 25.1553 20.7803C25.296 20.6397 25.375 20.4489 25.375 20.25Z" fill="#0D9488"/>
</g>
<defs>
<clipPath id="clip0_488_354">
<rect width="18" height="16" fill="white" transform="translate(11.375 12)"/>
</clipPath>
</defs>
</svg>
