<svg width="16" height="14" viewBox="0 0 16 14" fill="none" xmlns="http://www.w3.org/2000/svg">
<path d="M3.28437 5.33203C3.525 4.65078 3.91562 4.01016 4.46562 3.46328C6.41875 1.51016 9.58438 1.51016 11.5375 3.46328L12.0719 4.00078H10.5C9.94687 4.00078 9.5 4.44766 9.5 5.00078C9.5 5.55391 9.94687 6.00078 10.5 6.00078H14.4844H14.4969C15.05 6.00078 15.4969 5.55391 15.4969 5.00078V1.00078C15.4969 0.447656 15.05 0.000781298 14.4969 0.000781298C13.9437 0.000781298 13.4969 0.447656 13.4969 1.00078V2.60078L12.95 2.05078C10.2156 -0.683594 5.78438 -0.683594 3.05 2.05078C2.2875 2.81328 1.7375 3.71016 1.4 4.66953C1.21562 5.19141 1.49063 5.76016 2.00938 5.94453C2.52813 6.12891 3.1 5.85391 3.28437 5.33516V5.33203ZM1.21875 8.04141C1.0625 8.08828 0.9125 8.17266 0.790625 8.29766C0.665625 8.42266 0.58125 8.57266 0.5375 8.73516C0.528125 8.77266 0.51875 8.81328 0.5125 8.85391C0.503125 8.90703 0.5 8.96016 0.5 9.01328V13.0008C0.5 13.5539 0.946875 14.0008 1.5 14.0008C2.05313 14.0008 2.5 13.5539 2.5 13.0008V11.4039L3.05 11.9508C5.78438 14.682 10.2156 14.682 12.9469 11.9508C13.7094 11.1883 14.2625 10.2914 14.6 9.33516C14.7844 8.81328 14.5094 8.24453 13.9906 8.06016C13.4719 7.87578 12.9 8.15078 12.7156 8.66953C12.475 9.35078 12.0844 9.99141 11.5344 10.5383C9.58125 12.4914 6.41563 12.4914 4.4625 10.5383L4.45937 10.5352L3.925 10.0008H5.5C6.05312 10.0008 6.5 9.55391 6.5 9.00078C6.5 8.44766 6.05312 8.00078 5.5 8.00078H1.5125C1.4625 8.00078 1.4125 8.00391 1.3625 8.01016C1.3125 8.01641 1.26562 8.02578 1.21875 8.04141Z" fill="#9752F2"/>
</svg>
