<svg width="16" height="16" viewBox="0 0 16 16" fill="none" xmlns="http://www.w3.org/2000/svg">
<g clip-path="url(#clip0_407_189)">
<path d="M0 6.99931C0 7.55243 0.446875 7.99931 1 7.99931C1.55313 7.99931 2 7.55243 2 6.99931C2 5.34306 3.34375 3.99931 5 3.99931H10V4.99931C10 5.40243 10.2437 5.76806 10.6187 5.92431C10.9937 6.08056 11.4219 5.99306 11.7094 5.70868L13.7094 3.70868C14.1 3.31806 14.1 2.68368 13.7094 2.29306L11.7094 0.293056C11.4219 0.00555554 10.9937 -0.0788194 10.6187 0.0774306C10.2437 0.233681 10 0.596181 10 0.999306V1.99931H5C2.2375 1.99931 0 4.23681 0 6.99931ZM16 8.99931C16 8.44618 15.5531 7.99931 15 7.99931C14.4469 7.99931 14 8.44618 14 8.99931C14 10.6556 12.6562 11.9993 11 11.9993H6V10.9993C6 10.5962 5.75625 10.2306 5.38125 10.0743C5.00625 9.91806 4.57812 10.0056 4.29063 10.2899L2.29063 12.2899C1.9 12.6806 1.9 13.3149 2.29063 13.7056L4.29063 15.7056C4.57812 15.9931 5.00625 16.0774 5.38125 15.9212C5.75625 15.7649 6 15.4024 6 14.9962V13.9993H11C13.7625 13.9993 16 11.7618 16 8.99931Z" fill="#9752F2"/>
</g>
<defs>
<clipPath id="clip0_407_189">
<path d="M0 0H16V16H0V0Z" fill="white"/>
</clipPath>
</defs>
</svg>
