<svg width="21" height="16" viewBox="0 0 21 16" fill="none" xmlns="http://www.w3.org/2000/svg">
<path d="M10.4219 0C10.975 0 11.4219 0.446875 11.4219 1V3H15.1719C16.4156 3 17.4219 4.00625 17.4219 5.25V13.75C17.4219 14.9937 16.4156 16 15.1719 16H5.67188C4.42812 16 3.42188 14.9937 3.42188 13.75V5.25C3.42188 4.00625 4.42812 3 5.67188 3H9.42188V1C9.42188 0.446875 9.86875 0 10.4219 0ZM6.92188 12C6.64687 12 6.42188 12.225 6.42188 12.5C6.42188 12.775 6.64687 13 6.92188 13H7.92188C8.19688 13 8.42188 12.775 8.42188 12.5C8.42188 12.225 8.19688 12 7.92188 12H6.92188ZM9.92188 12C9.64688 12 9.42188 12.225 9.42188 12.5C9.42188 12.775 9.64688 13 9.92188 13H10.9219C11.1969 13 11.4219 12.775 11.4219 12.5C11.4219 12.225 11.1969 12 10.9219 12H9.92188ZM12.9219 12C12.6469 12 12.4219 12.225 12.4219 12.5C12.4219 12.775 12.6469 13 12.9219 13H13.9219C14.1969 13 14.4219 12.775 14.4219 12.5C14.4219 12.225 14.1969 12 13.9219 12H12.9219ZM8.67188 8C8.67188 7.66848 8.54018 7.35054 8.30576 7.11612C8.07134 6.8817 7.7534 6.75 7.42188 6.75C7.09035 6.75 6.77241 6.8817 6.53799 7.11612C6.30357 7.35054 6.17188 7.66848 6.17188 8C6.17188 8.33152 6.30357 8.64946 6.53799 8.88388C6.77241 9.1183 7.09035 9.25 7.42188 9.25C7.7534 9.25 8.07134 9.1183 8.30576 8.88388C8.54018 8.64946 8.67188 8.33152 8.67188 8ZM13.4219 9.25C13.7534 9.25 14.0713 9.1183 14.3058 8.88388C14.5402 8.64946 14.6719 8.33152 14.6719 8C14.6719 7.66848 14.5402 7.35054 14.3058 7.11612C14.0713 6.8817 13.7534 6.75 13.4219 6.75C13.0904 6.75 12.7724 6.8817 12.538 7.11612C12.3036 7.35054 12.1719 7.66848 12.1719 8C12.1719 8.33152 12.3036 8.64946 12.538 8.88388C12.7724 9.1183 13.0904 9.25 13.4219 9.25ZM1.92188 7H2.42188V13H1.92188C1.09375 13 0.421875 12.3281 0.421875 11.5V8.5C0.421875 7.67188 1.09375 7 1.92188 7ZM18.9219 7C19.75 7 20.4219 7.67188 20.4219 8.5V11.5C20.4219 12.3281 19.75 13 18.9219 13H18.4219V7H18.9219Z" fill="#0891B2"/>
</svg>
