<svg width="37" height="40" viewBox="0 0 37 40" fill="none" xmlns="http://www.w3.org/2000/svg">
<path d="M28.2031 0C32.6214 0 36.2031 3.58172 36.2031 8V32C36.2031 36.4183 32.6214 40 28.2031 40H8C3.58172 40 0 36.4183 0 32V8C0 3.58172 3.58172 0 8 0H28.2031Z" fill="#D1D5DB"/>
<path d="M28.2031 0C32.6214 0 36.2031 3.58172 36.2031 8V32C36.2031 36.4183 32.6214 40 28.2031 40H8C3.58172 40 0 36.4183 0 32V8C0 3.58172 3.58172 0 8 0H28.2031Z" stroke="#E5E7EB"/>
<path d="M26.0938 32H10.0938V8H26.0938V32Z" stroke="#E5E7EB"/>
<g clip-path="url(#clip0_221_167)">
<path d="M14.9844 25.9906L14.5906 26.9125C14.0062 26.6156 13.4688 26.25 12.9813 25.8219L13.6906 25.1125C14.0812 25.4531 14.5156 25.75 14.9844 25.9906ZM11.3625 20.5H10.3594C10.4031 21.1625 10.5281 21.8031 10.725 22.4094L11.6562 22.0375C11.5031 21.5469 11.4 21.0312 11.3625 20.5ZM11.3625 19.5C11.4062 18.9125 11.525 18.3438 11.7094 17.8094L10.7875 17.4156C10.5531 18.0719 10.4062 18.7719 10.3594 19.5H11.3625ZM12.1031 16.8906C12.3469 16.425 12.6406 15.9906 12.9813 15.5938L12.2719 14.8844C11.8437 15.3719 11.475 15.9094 11.1812 16.4938L12.1031 16.8906ZM22.5 25.1125C22.0656 25.4875 21.5813 25.8094 21.0594 26.0625L21.4312 26.9937C22.0781 26.6844 22.675 26.2875 23.2094 25.8188L22.5 25.1125ZM13.6875 14.8875C14.1219 14.5125 14.6063 14.1906 15.1281 13.9375L14.7562 13.0063C14.1094 13.3156 13.5125 13.7125 12.9813 14.1813L13.6875 14.8875ZM24.0844 23.1094C23.8406 23.575 23.5469 24.0094 23.2063 24.4062L23.9156 25.1156C24.3438 24.6281 24.7125 24.0875 25.0063 23.5063L24.0844 23.1094ZM24.825 20.5C24.7812 21.0875 24.6625 21.6562 24.4781 22.1906L25.4 22.5844C25.6344 21.925 25.7812 21.225 25.825 20.4969H24.825V20.5ZM20.1313 26.4375C19.6406 26.5938 19.125 26.6937 18.5938 26.7312V27.7344C19.2563 27.6906 19.8969 27.5656 20.5031 27.3687L20.1313 26.4375ZM17.5938 26.7312C17.0062 26.6875 16.4375 26.5687 15.9031 26.3844L15.5094 27.3062C16.1688 27.5406 16.8688 27.6875 17.5969 27.7312V26.7312H17.5938ZM24.5312 17.9625C24.6875 18.4531 24.7875 18.9688 24.825 19.5H25.8281C25.7844 18.8375 25.6594 18.1969 25.4625 17.5906L24.5312 17.9625ZM12.9813 24.4062C12.6063 23.9719 12.2844 23.4875 12.0312 22.9656L11.1 23.3375C11.4094 23.9844 11.8063 24.5813 12.275 25.1156L12.9813 24.4062ZM18.5938 13.2687C19.1812 13.3125 19.7469 13.4312 20.2844 13.6156L20.6781 12.6938C20.0219 12.4594 19.3219 12.3125 18.5938 12.2656V13.2687ZM16.0563 13.5625C16.5469 13.4062 17.0625 13.3062 17.5938 13.2687V12.2656C16.9313 12.3094 16.2906 12.4344 15.6844 12.6313L16.0563 13.5625ZM23.9156 14.8844L23.2063 15.5938C23.5813 16.0281 23.9031 16.5125 24.1594 17.0344L25.0906 16.6625C24.7812 16.0156 24.3844 15.4188 23.9156 14.8844ZM22.5 14.8875L23.2094 14.1781C22.7219 13.75 22.1844 13.3812 21.6 13.0875L21.2063 14.0094C21.6687 14.2531 22.1062 14.5469 22.5 14.8875Z" fill="#4B5563"/>
<path d="M18.0938 24.25C18.577 24.25 18.9688 23.8582 18.9688 23.375C18.9688 22.8918 18.577 22.5 18.0938 22.5C17.6105 22.5 17.2188 22.8918 17.2188 23.375C17.2188 23.8582 17.6105 24.25 18.0938 24.25Z" fill="#4B5563"/>
<path d="M18.3344 21.75H17.8344C17.6281 21.75 17.4594 21.5813 17.4594 21.375C17.4594 19.1562 19.8781 19.3781 19.8781 18.0062C19.8781 17.3812 19.3219 16.75 18.0844 16.75C17.175 16.75 16.7 17.05 16.2344 17.6469C16.1125 17.8031 15.8875 17.8344 15.7281 17.7219L15.3188 17.4344C15.1438 17.3125 15.1031 17.0656 15.2375 16.8969C15.9 16.0469 16.6875 15.5 18.0875 15.5C19.7219 15.5 21.1313 16.4312 21.1313 18.0062C21.1313 20.1187 18.7125 19.9906 18.7125 21.375C18.7094 21.5813 18.5406 21.75 18.3344 21.75Z" fill="#4B5563"/>
</g>
<defs>
<clipPath id="clip0_221_167">
<path d="M10.0938 12H26.0938V28H10.0938V12Z" fill="white"/>
</clipPath>
</defs>
</svg>
