<svg width="41" height="40" viewBox="0 0 41 40" fill="none" xmlns="http://www.w3.org/2000/svg">
<path d="M0.625 12C0.625 5.37258 5.99758 0 12.625 0H28.625C35.2524 0 40.625 5.37258 40.625 12V28C40.625 34.6274 35.2524 40 28.625 40H12.625C5.99758 40 0.625 34.6274 0.625 28V12Z" fill="#CFFAFE"/>
<g clip-path="url(#clip0_488_347)">
<path d="M25.625 13.5C25.625 12.6719 24.9531 12 24.125 12H21.125C20.2969 12 19.625 12.6719 19.625 13.5V15H17.625V12.75C17.625 12.3344 17.2906 12 16.875 12C16.4594 12 16.125 12.3344 16.125 12.75V15H14.125V12.75C14.125 12.3344 13.7906 12 13.375 12C12.9594 12 12.625 12.3344 12.625 12.75V15H12.125C11.2969 15 10.625 15.6719 10.625 16.5V19.5V26.5C10.625 27.3281 11.2969 28 12.125 28H20.125H21.125H24.125H29.125C29.9531 28 30.625 27.3281 30.625 26.5V19.5C30.625 18.6719 29.9531 18 29.125 18H25.625V13.5ZM28.625 23.5V24.5C28.625 24.775 28.4 25 28.125 25H27.125C26.85 25 26.625 24.775 26.625 24.5V23.5C26.625 23.225 26.85 23 27.125 23H28.125C28.4 23 28.625 23.225 28.625 23.5ZM18.125 25H17.125C16.85 25 16.625 24.775 16.625 24.5V23.5C16.625 23.225 16.85 23 17.125 23H18.125C18.4 23 18.625 23.225 18.625 23.5V24.5C18.625 24.775 18.4 25 18.125 25ZM14.625 24.5C14.625 24.775 14.4 25 14.125 25H13.125C12.85 25 12.625 24.775 12.625 24.5V23.5C12.625 23.225 12.85 23 13.125 23H14.125C14.4 23 14.625 23.225 14.625 23.5V24.5ZM28.125 20C28.4 20 28.625 20.225 28.625 20.5V21.5C28.625 21.775 28.4 22 28.125 22H27.125C26.85 22 26.625 21.775 26.625 21.5V20.5C26.625 20.225 26.85 20 27.125 20H28.125ZM18.625 17.5V18.5C18.625 18.775 18.4 19 18.125 19H17.125C16.85 19 16.625 18.775 16.625 18.5V17.5C16.625 17.225 16.85 17 17.125 17H18.125C18.4 17 18.625 17.225 18.625 17.5ZM14.125 17C14.4 17 14.625 17.225 14.625 17.5V18.5C14.625 18.775 14.4 19 14.125 19H13.125C12.85 19 12.625 18.775 12.625 18.5V17.5C12.625 17.225 12.85 17 13.125 17H14.125ZM18.625 21.5C18.625 21.775 18.4 22 18.125 22H17.125C16.85 22 16.625 21.775 16.625 21.5V20.5C16.625 20.225 16.85 20 17.125 20H18.125C18.4 20 18.625 20.225 18.625 20.5V21.5ZM14.125 22H13.125C12.85 22 12.625 21.775 12.625 21.5V20.5C12.625 20.225 12.85 20 13.125 20H14.125C14.4 20 14.625 20.225 14.625 20.5V21.5C14.625 21.775 14.4 22 14.125 22ZM23.625 20.5V21.5C23.625 21.775 23.4 22 23.125 22H22.125C21.85 22 21.625 21.775 21.625 21.5V20.5C21.625 20.225 21.85 20 22.125 20H23.125C23.4 20 23.625 20.225 23.625 20.5ZM23.125 14C23.4 14 23.625 14.225 23.625 14.5V15.5C23.625 15.775 23.4 16 23.125 16H22.125C21.85 16 21.625 15.775 21.625 15.5V14.5C21.625 14.225 21.85 14 22.125 14H23.125ZM23.625 17.5V18.5C23.625 18.775 23.4 19 23.125 19H22.125C21.85 19 21.625 18.775 21.625 18.5V17.5C21.625 17.225 21.85 17 22.125 17H23.125C23.4 17 23.625 17.225 23.625 17.5Z" fill="#0891B2"/>
</g>
<defs>
<clipPath id="clip0_488_347">
<rect width="20" height="16" fill="white" transform="translate(10.625 12)"/>
</clipPath>
</defs>
</svg>
