<svg width="15" height="13" viewBox="0 0 15 13" fill="none" xmlns="http://www.w3.org/2000/svg">
<path d="M8.61328 0.702113C8.29883 0.841566 8.09375 1.15602 8.09375 1.50055V3.25055H5.03125C2.37344 3.25055 0.21875 5.40524 0.21875 8.06305C0.21875 11.1611 2.44727 12.5447 2.95859 12.8236C3.02695 12.8619 3.10352 12.8756 3.18008 12.8756C3.47813 12.8756 3.71875 12.6322 3.71875 12.3369C3.71875 12.1318 3.60117 11.9431 3.45078 11.8037C3.19375 11.5603 2.84375 11.0818 2.84375 10.2506C2.84375 8.80133 4.01953 7.62555 5.46875 7.62555H8.09375V9.37555C8.09375 9.72008 8.29609 10.0345 8.61328 10.174C8.93047 10.3134 9.29688 10.256 9.55391 10.0263L13.9289 6.08883C14.1121 5.92204 14.2188 5.68688 14.2188 5.43805C14.2188 5.18922 14.1148 4.95407 13.9289 4.78727L9.55391 0.84977C9.29688 0.617348 8.92773 0.559926 8.61328 0.702113Z" fill="#9752F2"/>
</svg>
