<svg width="41" height="40" viewBox="0 0 41 40" fill="none" xmlns="http://www.w3.org/2000/svg">
<path d="M0.875 12C0.875 5.37258 6.24758 0 12.875 0H28.875C35.5024 0 40.875 5.37258 40.875 12V28C40.875 34.6274 35.5024 40 28.875 40H12.875C6.24758 40 0.875 34.6274 0.875 28V12Z" fill="#FCE7F3"/>
<g clip-path="url(#clip0_488_373)">
<path d="M17.1562 13.2186C16.6938 12.9342 16.1125 12.9248 15.6406 13.1905C15.1687 13.4561 14.875 13.9561 14.875 14.4998V25.4998C14.875 26.0436 15.1687 26.5436 15.6406 26.8092C16.1125 27.0748 16.6938 27.0623 17.1562 26.7811L26.1562 21.2811C26.6031 21.0092 26.875 20.5248 26.875 19.9998C26.875 19.4748 26.6031 18.9936 26.1562 18.7186L17.1562 13.2186Z" fill="#DB2777"/>
</g>
<defs>
<clipPath id="clip0_488_373">
<rect width="12" height="16" fill="white" transform="translate(14.875 12)"/>
</clipPath>
</defs>
</svg>
