<svg width="125" height="129" viewBox="0 0 125 129" fill="none" xmlns="http://www.w3.org/2000/svg">
<path d="M62.5 2C95.9132 2 123 29.0868 123 62.5C123 95.9132 95.9132 123 62.5 123C29.0868 123 2 95.9132 2 62.5C2 29.0868 29.0868 2 62.5 2Z" stroke="#22C55E" stroke-width="4"/>
<path d="M93 129H49V51H93V129Z" stroke="#E5E7EB"/>
<path d="M91.8701 42.2889C93.3766 44.0073 93.3766 46.7982 91.8701 48.5166L61.0164 83.7111C59.5099 85.4296 57.0633 85.4296 55.5567 83.7111L40.1299 66.1139C38.6234 64.3954 38.6234 61.6046 40.1299 59.8861C41.6364 58.1676 44.083 58.1676 45.5896 59.8861L58.2926 74.3626L86.4225 42.2889C87.929 40.5704 90.3756 40.5704 91.8822 42.2889H91.8701Z" fill="#22C55E"/>
</svg>
