<svg width="48" height="48" viewBox="0 0 48 48" fill="none" xmlns="http://www.w3.org/2000/svg">
<path d="M24 0C37.2548 0 48 10.7452 48 24C48 37.2548 37.2548 48 24 48C10.7452 48 0 37.2548 0 24C0 10.7452 10.7452 0 24 0Z" fill="#F3E8FF"/>
<path d="M24 0C37.2548 0 48 10.7452 48 24C48 37.2548 37.2548 48 24 48C10.7452 48 0 37.2548 0 24C0 10.7452 10.7452 0 24 0Z" stroke="#E5E7EB"/>
<path d="M32 36H16V12H32V36Z" stroke="#E5E7EB"/>
<g clip-path="url(#clip0_898_3752)">
<path d="M24 15.5C20.4094 15.5 17.5 18.4094 17.5 22V23.25C17.5 23.6656 17.1656 24 16.75 24C16.3344 24 16 23.6656 16 23.25V22C16 17.5813 19.5813 14 24 14C28.4187 14 32 17.5813 32 22V26.5031C32 28.0219 30.7688 29.2531 29.2469 29.2531L25.8 29.25C25.5406 29.6969 25.0562 30 24.5 30H23.5C22.6719 30 22 29.3281 22 28.5C22 27.6719 22.6719 27 23.5 27H24.5C25.0562 27 25.5406 27.3031 25.8 27.75L29.25 27.7531C29.9406 27.7531 30.5 27.1938 30.5 26.5031V22C30.5 18.4094 27.5906 15.5 24 15.5ZM20.5 20.5H21C21.5531 20.5 22 20.9469 22 21.5V25C22 25.5531 21.5531 26 21 26H20.5C19.3969 26 18.5 25.1031 18.5 24V22.5C18.5 21.3969 19.3969 20.5 20.5 20.5ZM27.5 20.5C28.6031 20.5 29.5 21.3969 29.5 22.5V24C29.5 25.1031 28.6031 26 27.5 26H27C26.4469 26 26 25.5531 26 25V21.5C26 20.9469 26.4469 20.5 27 20.5H27.5Z" fill="#5F259F"/>
</g>
<defs>
<clipPath id="clip0_898_3752">
<path d="M16 14H32V30H16V14Z" fill="white"/>
</clipPath>
</defs>
</svg>
