<svg width="14" height="16" viewBox="0 0 14 16" fill="none" xmlns="http://www.w3.org/2000/svg">
<g clip-path="url(#clip0_501_204)">
<path d="M10.9188 1.39403C11.1032 0.965908 10.9657 0.465908 10.5876 0.190908C10.2094 -0.0840923 9.69382 -0.0590923 9.3407 0.247158L1.3407 7.24716C1.0282 7.52216 0.9157 7.96278 1.06257 8.35028C1.20945 8.73778 1.58445 9.00028 2.00007 9.00028H5.48445L3.08132 14.6065C2.89695 15.0347 3.03445 15.5347 3.41257 15.8097C3.7907 16.0847 4.30632 16.0597 4.65945 15.7534L12.6594 8.75341C12.9719 8.47841 13.0844 8.03778 12.9376 7.65028C12.7907 7.26278 12.4188 7.00341 12.0001 7.00341H8.5157L10.9188 1.39403Z" fill="#9752F2"/>
</g>
<defs>
<clipPath id="clip0_501_204">
<path d="M0 0H14V16H0V0Z" fill="white"/>
</clipPath>
</defs>
</svg>
