<svg width="48" height="48" viewBox="0 0 48 48" fill="none" xmlns="http://www.w3.org/2000/svg">
<path d="M0 8C0 3.58172 3.58172 0 8 0H40C44.4183 0 48 3.58172 48 8V40C48 44.4183 44.4183 48 40 48H8C3.58172 48 0 44.4183 0 40V8Z" fill="#EFF6FF"/>
<g clip-path="url(#clip0_375_342)">
<path d="M14 16V27.25H34V16H14ZM11.5 16C11.5 14.6211 12.6211 13.5 14 13.5H34C35.3789 13.5 36.5 14.6211 36.5 16V27.25C36.5 28.6289 35.3789 29.75 34 29.75H14C12.6211 29.75 11.5 28.6289 11.5 27.25V16ZM16.5 31H31.5C32.1914 31 32.75 31.5586 32.75 32.25C32.75 32.9414 32.1914 33.5 31.5 33.5H16.5C15.8086 33.5 15.25 32.9414 15.25 32.25C15.25 31.5586 15.8086 31 16.5 31Z" fill="#3B82F6"/>
</g>
<defs>
<clipPath id="clip0_375_342">
<rect width="25" height="20" fill="white" transform="translate(11.5 13.5)"/>
</clipPath>
</defs>
</svg>
