<svg width="30" height="40" viewBox="0 0 30 40" fill="none" xmlns="http://www.w3.org/2000/svg">
<path d="M21.9062 0C26.3245 0 29.9062 3.58172 29.9062 8V32C29.9062 36.4183 26.3245 40 21.9062 40H8C3.58172 40 0 36.4183 0 32V8C0 3.58172 3.58172 0 8 0H21.9062Z" fill="url(#paint0_linear_221_156)"/>
<path d="M21.9062 0C26.3245 0 29.9062 3.58172 29.9062 8V32C29.9062 36.4183 26.3245 40 21.9062 40H8C3.58172 40 0 36.4183 0 32V8C0 3.58172 3.58172 0 8 0H21.9062Z" stroke="#E5E7EB"/>
<path d="M11.1335 15.2727H12.9787V20.9403C12.9787 21.5767 12.8267 22.1335 12.5227 22.6108C12.2216 23.0881 11.7997 23.4602 11.2571 23.7273C10.7145 23.9915 10.0824 24.1236 9.3608 24.1236C8.63636 24.1236 8.00284 23.9915 7.46023 23.7273C6.91761 23.4602 6.49574 23.0881 6.1946 22.6108C5.89347 22.1335 5.7429 21.5767 5.7429 20.9403V15.2727H7.58807V20.7827C7.58807 21.1151 7.66051 21.4105 7.8054 21.669C7.95313 21.9276 8.16051 22.1307 8.42756 22.2784C8.6946 22.4261 9.00568 22.5 9.3608 22.5C9.71875 22.5 10.0298 22.4261 10.294 22.2784C10.5611 22.1307 10.767 21.9276 10.9119 21.669C11.0597 21.4105 11.1335 21.1151 11.1335 20.7827V15.2727ZM14.4968 24V15.2727H17.94C18.6019 15.2727 19.1658 15.3991 19.6317 15.652C20.0977 15.902 20.4528 16.25 20.6971 16.696C20.9442 17.1392 21.0678 17.6506 21.0678 18.2301C21.0678 18.8097 20.9428 19.321 20.6928 19.7642C20.4428 20.2074 20.0806 20.5526 19.6062 20.7997C19.1346 21.0469 18.5636 21.1705 17.8931 21.1705H15.6985V19.6918H17.5948C17.9499 19.6918 18.2425 19.6307 18.4727 19.5085C18.7056 19.3835 18.8789 19.2116 18.9925 18.9929C19.109 18.7713 19.1673 18.517 19.1673 18.2301C19.1673 17.9403 19.109 17.6875 18.9925 17.4716C18.8789 17.2528 18.7056 17.0838 18.4727 16.9645C18.2397 16.8423 17.9442 16.7812 17.5863 16.7812H16.342V24H14.4968ZM24.1115 15.2727V24H22.2663V15.2727H24.1115Z" fill="white"/>
<defs>
<linearGradient id="paint0_linear_221_156" x1="0" y1="20" x2="29.9062" y2="20" gradientUnits="userSpaceOnUse">
<stop stop-color="#FB923C"/>
<stop offset="1" stop-color="#EF4444"/>
</linearGradient>
</defs>
</svg>
