<svg width="40" height="40" viewBox="0 0 40 40" fill="none" xmlns="http://www.w3.org/2000/svg">
<path d="M32 0C36.4183 0 40 3.58172 40 8V32C40 36.4183 36.4183 40 32 40H8C3.58172 40 0 36.4183 0 32V8C0 3.58172 3.58172 0 8 0H32Z" fill="url(#paint0_linear_161_196)"/>
<path d="M32 0C36.4183 0 40 3.58172 40 8V32C40 36.4183 36.4183 40 32 40H8C3.58172 40 0 36.4183 0 32V8C0 3.58172 3.58172 0 8 0H32Z" stroke="#E5E7EB"/>
<path d="M27.875 34H12.125V6H27.875V34Z" stroke="#E5E7EB"/>
<g clip-path="url(#clip0_161_196)">
<path d="M24.4086 11.8183C24.616 11.3366 24.4613 10.7741 24.0359 10.4648C23.6105 10.1554 23.0305 10.1835 22.6332 10.5281L13.6332 18.4031C13.2816 18.7124 13.1551 19.2081 13.3203 19.6441C13.4855 20.08 13.9074 20.3753 14.375 20.3753H18.2949L15.5914 26.6823C15.384 27.164 15.5387 27.7265 15.9641 28.0359C16.3895 28.3452 16.9695 28.3171 17.3668 27.9726L26.3668 20.0976C26.7184 19.7882 26.8449 19.2925 26.6797 18.8566C26.5145 18.4206 26.0961 18.1288 25.625 18.1288H21.7051L24.4086 11.8183Z" fill="white"/>
</g>
<defs>
<linearGradient id="paint0_linear_161_196" x1="20" y1="0" x2="20" y2="40" gradientUnits="userSpaceOnUse">
<stop stop-color="#C882FD"/>
<stop offset="1" stop-color="#712DEA"/>
</linearGradient>
<clipPath id="clip0_161_196">
<path d="M12.125 10.25H27.875V28.25H12.125V10.25Z" fill="white"/>
</clipPath>
</defs>
</svg>
