<svg width="40" height="40" viewBox="0 0 40 40" fill="none" xmlns="http://www.w3.org/2000/svg">
<path d="M32 0C36.4183 0 40 3.58172 40 8V32C40 36.4183 36.4183 40 32 40H8C3.58172 40 0 36.4183 0 32V8C0 3.58172 3.58172 0 8 0H32Z" fill="url(#paint0_linear_161_208)"/>
<path d="M32 0C36.4183 0 40 3.58172 40 8V32C40 36.4183 36.4183 40 32 40H8C3.58172 40 0 36.4183 0 32V8C0 3.58172 3.58172 0 8 0H32Z" stroke="#E5E7EB"/>
<path d="M29 34H11V6H29V34Z" stroke="#E5E7EB"/>
<path d="M29 28.25H11V10.25H29V28.25Z" stroke="#E5E7EB"/>
<path d="M13.25 11.375C12.009 11.375 11 12.384 11 13.625V24.875C11 26.116 12.009 27.125 13.25 27.125H26.75C27.991 27.125 29 26.116 29 24.875V17C29 15.759 27.991 14.75 26.75 14.75H13.8125C13.5031 14.75 13.25 14.4969 13.25 14.1875C13.25 13.8781 13.5031 13.625 13.8125 13.625H26.75C27.3723 13.625 27.875 13.1223 27.875 12.5C27.875 11.8777 27.3723 11.375 26.75 11.375H13.25ZM25.625 19.8125C25.9234 19.8125 26.2095 19.931 26.4205 20.142C26.6315 20.353 26.75 20.6391 26.75 20.9375C26.75 21.2359 26.6315 21.522 26.4205 21.733C26.2095 21.944 25.9234 22.0625 25.625 22.0625C25.3266 22.0625 25.0405 21.944 24.8295 21.733C24.6185 21.522 24.5 21.2359 24.5 20.9375C24.5 20.6391 24.6185 20.353 24.8295 20.142C25.0405 19.931 25.3266 19.8125 25.625 19.8125Z" fill="white"/>
<defs>
<linearGradient id="paint0_linear_161_208" x1="20" y1="0" x2="20" y2="40" gradientUnits="userSpaceOnUse">
<stop stop-color="#C882FD"/>
<stop offset="1" stop-color="#712DEA"/>
</linearGradient>
</defs>
</svg>
