<svg width="41" height="40" viewBox="0 0 41 40" fill="none" xmlns="http://www.w3.org/2000/svg">
<path d="M0.125 12C0.125 5.37258 5.49758 0 12.125 0H28.125C34.7524 0 40.125 5.37258 40.125 12V28C40.125 34.6274 34.7524 40 28.125 40H12.125C5.49758 40 0.125 34.6274 0.125 28V12Z" fill="#DBEAFE"/>
<g clip-path="url(#clip0_488_273)">
<path d="M20.125 28C16.8125 28 14.125 25.3125 14.125 22C14.125 19.15 18.1938 13.8031 19.3313 12.3656C19.5188 12.1312 19.7969 12 20.0969 12H20.1531C20.4531 12 20.7312 12.1312 20.9187 12.3656C22.0562 13.8031 26.125 19.15 26.125 22C26.125 25.3125 23.4375 28 20.125 28ZM17.125 22.5C17.125 22.225 16.9 22 16.625 22C16.35 22 16.125 22.225 16.125 22.5C16.125 24.4344 17.6906 26 19.625 26C19.9 26 20.125 25.775 20.125 25.5C20.125 25.225 19.9 25 19.625 25C18.2438 25 17.125 23.8813 17.125 22.5Z" fill="#2563EB"/>
</g>
<defs>
<clipPath id="clip0_488_273">
<rect width="12" height="16" fill="white" transform="translate(14.125 12)"/>
</clipPath>
</defs>
</svg>
