<svg width="41" height="40" viewBox="0 0 41 40" fill="none" xmlns="http://www.w3.org/2000/svg">
<path d="M0.625 12C0.625 5.37258 5.99758 0 12.625 0H28.625C35.2524 0 40.625 5.37258 40.625 12V28C40.625 34.6274 35.2524 40 28.625 40H12.625C5.99758 40 0.625 34.6274 0.625 28V12Z" fill="#CCFBF1"/>
<g clip-path="url(#clip0_488_287)">
<path d="M12.3186 18.3406C14.4748 16.2719 17.3998 15 20.6248 15C23.8498 15 26.7748 16.2719 28.9311 18.3406C29.3311 18.7219 29.9623 18.7094 30.3436 18.3125C30.7248 17.9156 30.7123 17.2812 30.3154 16.9C27.8029 14.4844 24.3873 13 20.6248 13C16.8623 13 13.4467 14.4844 10.9311 16.8969C10.5342 17.2812 10.5217 17.9125 10.9029 18.3125C11.2842 18.7125 11.9186 18.725 12.3154 18.3406H12.3186ZM20.6248 20C22.3998 20 24.0186 20.6594 25.2561 21.75C25.6717 22.1156 26.3029 22.075 26.6686 21.6625C27.0342 21.25 26.9936 20.6156 26.5811 20.25C24.9936 18.85 22.9061 18 20.6248 18C18.3436 18 16.2561 18.85 14.6717 20.25C14.2561 20.6156 14.2186 21.2469 14.5842 21.6625C14.9498 22.0781 15.5811 22.1156 15.9967 21.75C17.2311 20.6594 18.8498 20 20.6279 20H20.6248ZM22.6248 25C22.6248 24.4696 22.4141 23.9609 22.039 23.5858C21.6639 23.2107 21.1552 23 20.6248 23C20.0944 23 19.5857 23.2107 19.2106 23.5858C18.8355 23.9609 18.6248 24.4696 18.6248 25C18.6248 25.5304 18.8355 26.0391 19.2106 26.4142C19.5857 26.7893 20.0944 27 20.6248 27C21.1552 27 21.6639 26.7893 22.039 26.4142C22.4141 26.0391 22.6248 25.5304 22.6248 25Z" fill="#0D9488"/>
</g>
<defs>
<clipPath id="clip0_488_287">
<rect width="20" height="16" fill="white" transform="translate(10.625 12)"/>
</clipPath>
</defs>
</svg>
