<svg width="24" height="24" viewBox="0 0 24 24" fill="none" xmlns="http://www.w3.org/2000/svg">
<path fill-rule="evenodd" clip-rule="evenodd" d="M12.2223 1C9.43894 1 7.18262 3.25632 7.18262 6.03963C7.18262 8.82294 9.43894 11.0793 12.2223 11.0793C15.0056 11.0793 17.2619 8.82294 17.2619 6.03963C17.2619 3.25632 15.0056 1 12.2223 1ZM8.77408 6.03963C8.77408 4.13526 10.3179 2.59146 12.2223 2.59146C14.1266 2.59146 15.6704 4.13526 15.6704 6.03963C15.6704 7.94401 14.1266 9.48781 12.2223 9.48781C10.3179 9.48781 8.77408 7.94401 8.77408 6.03963Z" fill="#8B01F7"/>
<path fill-rule="evenodd" clip-rule="evenodd" d="M12.2226 12.6709C10.0589 12.6709 8.06091 13.1704 6.57621 14.0188C5.11402 14.8543 4 16.1298 4 17.7105C4 19.2913 5.11402 20.5668 6.57621 21.4023C8.06091 22.2507 10.0589 22.7502 12.2226 22.7502C14.3862 22.7502 16.3842 22.2507 17.869 21.4023C19.3311 20.5668 20.4451 19.2913 20.4451 17.7105C20.4451 16.1298 19.3311 14.8543 17.869 14.0188C16.3842 13.1704 14.3862 12.6709 12.2226 12.6709ZM5.59146 17.7105C5.59146 16.9474 6.14 16.101 7.3658 15.4006C8.56908 14.713 10.2845 14.2624 12.2226 14.2624C14.1606 14.2624 15.876 14.713 17.0793 15.4006C18.3051 16.101 18.8537 16.9474 18.8537 17.7105C18.8537 18.4737 18.3051 19.32 17.0793 20.0205C15.876 20.7081 14.1606 21.1587 12.2226 21.1587C10.2845 21.1587 8.56908 20.7081 7.3658 20.0205C6.14 19.32 5.59146 18.4737 5.59146 17.7105Z" fill="#8B01F7"/>
</svg>
